<svg width="28" height="27" viewBox="0 0 28 27" fill="none" xmlns="http://www.w3.org/2000/svg">
<g clip-path="url(#clip0_1682_2402)">
<path d="M13.7276 2.43223C17.3331 2.43223 17.7563 2.44831 19.1814 2.51259C20.4993 2.57153 21.2118 2.79118 21.6886 2.97868C22.3208 3.22512 22.7708 3.51442 23.2422 3.98586C23.7137 4.45731 24.0083 4.90733 24.2494 5.53949C24.4316 6.0163 24.6566 6.72882 24.7155 8.04673C24.7798 9.47178 24.7959 9.89501 24.7959 13.5005C24.7959 17.106 24.7798 17.5292 24.7155 18.9543C24.6566 20.2722 24.4369 20.9847 24.2494 21.4615C24.003 22.0937 23.7137 22.5437 23.2422 23.0152C22.7708 23.4866 22.3208 23.7813 21.6886 24.0223C21.2118 24.2045 20.4993 24.4295 19.1814 24.4884C17.7563 24.5527 17.3331 24.5688 13.7276 24.5688C10.1221 24.5688 9.69886 24.5527 8.2738 24.4884C6.95589 24.4295 6.24337 24.2098 5.76656 24.0223C5.1344 23.7759 4.68438 23.4866 4.21293 23.0152C3.74149 22.5437 3.44683 22.0937 3.20575 21.4615C3.0236 20.9847 2.79859 20.2722 2.73966 18.9543C2.67537 17.5292 2.6593 17.106 2.6593 13.5005C2.6593 9.89501 2.67537 9.47178 2.73966 8.04673C2.79859 6.72882 3.01824 6.0163 3.20575 5.53949C3.45219 4.90733 3.74149 4.45731 4.21293 3.98586C4.68438 3.51442 5.1344 3.21976 5.76656 2.97868C6.24337 2.79653 6.95589 2.57153 8.2738 2.51259C9.69886 2.44295 10.1274 2.43223 13.7276 2.43223ZM13.7276 0C10.0632 0 9.60242 0.016072 8.1613 0.0803602C6.72553 0.144648 5.74513 0.375014 4.88796 0.707169C3.99864 1.05004 3.24861 1.51613 2.49858 2.26616C1.74855 3.01618 1.28782 3.77157 0.939592 4.65553C0.607436 5.51271 0.37707 6.4931 0.312782 7.93423C0.248494 9.37 0.232422 9.83073 0.232422 13.4951C0.232422 17.1596 0.248494 17.6203 0.312782 19.0614C0.37707 20.4972 0.607436 21.4776 0.939592 22.3401C1.28246 23.2294 1.74855 23.9795 2.49858 24.7295C3.24861 25.4795 4.004 25.9403 4.88796 26.2885C5.74513 26.6206 6.72553 26.851 8.16666 26.9153C9.60778 26.9796 10.0632 26.9957 13.7329 26.9957C17.4027 26.9957 17.8581 26.9796 19.2992 26.9153C20.735 26.851 21.7154 26.6206 22.5779 26.2885C23.4672 25.9456 24.2173 25.4795 24.9673 24.7295C25.7173 23.9795 26.1781 23.2241 26.5263 22.3401C26.8584 21.483 27.0888 20.5026 27.1531 19.0614C27.2174 17.6203 27.2335 17.1649 27.2335 13.4951C27.2335 9.82537 27.2174 9.37 27.1531 7.92887C27.0888 6.4931 26.8584 5.51271 26.5263 4.65018C26.1834 3.76086 25.7173 3.01083 24.9673 2.2608C24.2173 1.51077 23.4619 1.05004 22.5779 0.701812C21.7207 0.369657 20.7404 0.139291 19.2992 0.0750028C17.8527 0.016072 17.392 0 13.7276 0Z" fill="white"/>
<path d="M13.7276 2.43223C17.3331 2.43223 17.7563 2.44831 19.1814 2.51259C20.4993 2.57153 21.2118 2.79118 21.6886 2.97868C22.3208 3.22512 22.7708 3.51442 23.2422 3.98586C23.7137 4.45731 24.0083 4.90733 24.2494 5.53949C24.4316 6.0163 24.6566 6.72882 24.7155 8.04673C24.7798 9.47178 24.7959 9.89501 24.7959 13.5005C24.7959 17.106 24.7798 17.5292 24.7155 18.9543C24.6566 20.2722 24.4369 20.9847 24.2494 21.4615C24.003 22.0937 23.7137 22.5437 23.2422 23.0152C22.7708 23.4866 22.3208 23.7813 21.6886 24.0223C21.2118 24.2045 20.4993 24.4295 19.1814 24.4884C17.7563 24.5527 17.3331 24.5688 13.7276 24.5688C10.1221 24.5688 9.69886 24.5527 8.2738 24.4884C6.95589 24.4295 6.24337 24.2098 5.76656 24.0223C5.1344 23.7759 4.68438 23.4866 4.21293 23.0152C3.74149 22.5437 3.44683 22.0937 3.20575 21.4615C3.0236 20.9847 2.79859 20.2722 2.73966 18.9543C2.67537 17.5292 2.6593 17.106 2.6593 13.5005C2.6593 9.89501 2.67537 9.47178 2.73966 8.04673C2.79859 6.72882 3.01824 6.0163 3.20575 5.53949C3.45219 4.90733 3.74149 4.45731 4.21293 3.98586C4.68438 3.51442 5.1344 3.21976 5.76656 2.97868C6.24337 2.79653 6.95589 2.57153 8.2738 2.51259C9.69886 2.44295 10.1274 2.43223 13.7276 2.43223Z" fill="white"/>
<path d="M13.7276 6.56812C9.90243 6.56812 6.79517 9.67002 6.79517 13.5005C6.79517 17.331 9.89707 20.4329 13.7276 20.4329C17.5581 20.4329 20.66 17.331 20.66 13.5005C20.66 9.67002 17.5581 6.56812 13.7276 6.56812ZM13.7276 17.9953C11.2418 17.9953 9.2274 15.981 9.2274 13.4952C9.2274 11.0094 11.2418 8.99499 13.7276 8.99499C16.2134 8.99499 18.2277 11.0094 18.2277 13.4952C18.2277 15.981 16.2134 17.9953 13.7276 17.9953Z" fill="#0C0B0B"/>
<path d="M20.9332 7.90747C21.8267 7.90747 22.5511 7.1831 22.5511 6.28955C22.5511 5.396 21.8267 4.67163 20.9332 4.67163C20.0396 4.67163 19.3153 5.396 19.3153 6.28955C19.3153 7.1831 20.0396 7.90747 20.9332 7.90747Z" fill="#0C0B0B"/>
</g>
<defs>
<clipPath id="clip0_1682_2402">
<rect x="0.232422" width="26.9903" height="26.9903" fill="white"/>
</clipPath>
</defs>
</svg>
