<svg width="151" height="40" viewBox="0 0 151 40" fill="none" xmlns="http://www.w3.org/2000/svg">
<path d="M75.5948 26.2877H70.5398V12.8617H75.5948V26.2877ZM71.0335 25.7973H75.1011V13.3521H71.0335V25.7973ZM82.6282 26.2877H77.675V12.8617H88.0238C89.5063 12.7424 90.9827 13.1559 92.1842 14.027C92.7014 14.4971 93.1024 15.0796 93.3556 15.729C93.609 16.3785 93.7078 17.0773 93.6444 17.7709C93.7182 18.9695 93.3343 20.1517 92.5692 21.0813C91.6639 22.1132 90.1573 22.6448 88.0919 22.6635C87.5716 22.6772 83.6728 22.6635 82.6312 22.6635L82.6282 26.2877ZM78.1657 25.7973H82.1346V22.1681H82.3824C82.4327 22.1681 87.4946 22.1838 88.08 22.1681C90.0043 22.1514 91.3875 21.6777 92.196 20.7527C92.8771 19.9116 93.2153 18.8471 93.1438 17.7699C93.2046 17.1484 93.1203 16.5214 92.8978 15.9374C92.6752 15.3535 92.3202 14.8283 91.8604 14.4026C90.7463 13.6082 89.3833 13.2353 88.0168 13.3512H78.1686L78.1657 25.7973ZM86.9753 19.6473H82.101V15.9926H87.0078C87.3557 15.9449 87.71 15.9852 88.0379 16.1099C88.3659 16.2345 88.6568 16.4395 88.8837 16.7057C89.0895 17.046 89.1866 17.4403 89.1621 17.8366C89.1806 18.2046 89.1006 18.5708 88.9301 18.8979C88.696 19.1783 88.3932 19.3942 88.0508 19.5247C87.7085 19.6553 87.3381 19.6961 86.9753 19.6434V19.6473ZM82.5946 19.1569H86.9753C87.7848 19.1569 88.2864 18.9891 88.5085 18.6439C88.6308 18.3929 88.6862 18.115 88.6694 17.8366C88.6911 17.5444 88.6273 17.2522 88.4858 16.9951L88.4799 16.9862C88.2449 16.6429 87.7779 16.483 87.0078 16.483H82.5946V19.1569ZM102.653 26.4859C98.2205 26.4859 95.5745 25.3922 94.5665 23.1431C94.4015 22.7087 94.2896 22.2562 94.2328 21.7954L94.1894 21.5129H99.4635L99.498 21.7189C99.5386 21.928 99.6284 22.1249 99.7587 22.2937C99.967 22.5438 100.662 22.9636 102.968 22.9636C105.741 22.9636 105.741 22.48 105.741 22.2201C105.741 21.7817 105.42 21.6316 103.159 21.3923L102.729 21.352C101.878 21.2726 100.802 21.1716 100.311 21.1294C96.164 20.7567 94.3128 19.4766 94.3128 16.9803C94.3128 14.3585 97.4632 12.6646 102.339 12.6646C106.317 12.6646 108.88 13.7062 109.955 15.7631C110.21 16.2415 110.382 16.7596 110.462 17.2952L110.496 17.5708H105.216L105.195 17.3491C105.174 17.1759 105.1 17.0134 104.981 16.8842C104.784 16.6213 104.16 16.1868 102.223 16.1868C99.8446 16.1868 99.5168 16.4889 99.5168 16.8146C99.5168 17.2491 100.268 17.4031 102.676 17.6591C103.68 17.7405 105.294 17.9053 105.847 17.972C109.324 18.3467 110.875 19.5953 110.875 22.022C110.876 24.0573 109.449 26.4859 102.653 26.4859ZM94.766 22.0033C94.8154 22.3268 94.9005 22.6438 95.0197 22.9489C95.9379 24.9979 98.4357 25.9954 102.653 25.9954C106.18 25.9954 110.385 25.3088 110.385 22.022C110.385 19.8709 109.013 18.8057 105.795 18.4595C105.242 18.3928 103.638 18.229 102.636 18.1466C100.069 17.87 99.0251 17.7229 99.0251 16.8146C99.0251 15.8749 100.15 15.6964 102.225 15.6964C103.865 15.6964 104.924 15.9907 105.373 16.5841C105.496 16.7303 105.589 16.8989 105.646 17.0804H109.925C109.839 16.701 109.703 16.3346 109.52 15.9907C108.533 14.1084 106.121 13.155 102.341 13.155C97.7653 13.155 94.8084 14.6567 94.8084 16.9803C94.8084 19.1971 96.468 20.2917 100.356 20.6409C100.85 20.6831 101.925 20.7841 102.778 20.8646L103.21 20.9048C105.31 21.1245 106.236 21.2618 106.236 22.2201C106.236 23.252 105.039 23.454 102.97 23.454C101.057 23.454 99.8485 23.1686 99.3815 22.6066C99.2376 22.4274 99.129 22.2227 99.0617 22.0033H94.766ZM120.254 26.4692C115.1 26.4692 112.257 24.3986 112.257 20.638V12.8617H117.245V20.638C117.245 21.9278 118.407 22.6674 120.432 22.6674C122.367 22.6674 123.568 21.8954 123.568 20.6546V12.8617H128.505V21.0499C128.51 24.4937 125.499 26.4692 120.251 26.4692H120.254ZM112.75 13.3521V20.638C112.75 25.2853 117.448 25.9788 120.254 25.9788C123.154 25.9788 128.019 25.3383 128.019 21.0499V13.3521H124.07V20.6546C124.07 22.175 122.644 23.1578 120.439 23.1578C118.135 23.1578 116.759 22.2162 116.759 20.638V13.3521H112.75ZM149.423 26.2877H144.716V20.226L142.046 26.2877H137.94L135.298 20.2378V26.2877H130.574V12.8617H136.788L140.016 20.2643L143.401 12.8617H149.429L149.423 26.2877ZM145.21 25.7973H148.93V13.3521H143.715L140.001 21.4727L136.46 13.3521H131.064V25.7973H134.801V17.8778L138.256 25.8002H141.712L145.204 17.8896L145.21 25.7973ZM6.8409 13.1069H2.34479V26.0425H14.7688V22.5987H6.8409V13.1069ZM23.844 12.8127C18.1049 12.8127 15.0867 15.5149 15.0867 19.4825C15.0867 23.9651 18.255 26.2387 23.844 26.2387C29.9968 26.2387 32.5845 23.6021 32.5845 19.4825C32.5845 15.2991 29.6651 12.8107 23.844 12.8107V12.8127ZM23.8272 16.1741C24.2179 16.1722 24.6084 16.1948 24.9962 16.2418L19.9699 21.2353C19.732 20.7008 19.616 20.1207 19.6303 19.5365C19.6303 17.5071 20.659 16.1721 23.8272 16.1721V16.1741ZM23.844 22.9302C23.4676 22.9319 23.0914 22.9109 22.7175 22.8675L27.7527 17.8651C27.9816 18.3907 28.0912 18.96 28.0736 19.5325C28.0736 21.507 27.1258 22.9283 23.844 22.9283V22.9302ZM41.4928 21.1647H46.1202C46.0521 21.4838 45.9101 21.7826 45.7056 22.0377C44.7462 22.8141 43.5219 23.1919 42.2886 23.0921C41.6677 23.1581 41.04 23.0907 40.4477 22.8945C39.8555 22.6985 39.3125 22.3781 38.8557 21.9553C38.3879 21.2735 38.1656 20.4546 38.2249 19.6316C38.1491 18.7692 38.3908 17.9087 38.9051 17.2099C39.5518 16.484 40.6467 16.1711 42.256 16.1711C43.2799 16.0869 44.3025 16.3482 45.1586 16.9127C45.4284 17.1256 45.6301 17.4118 45.7391 17.7366H50.0309C49.9997 17.2015 49.8701 16.6766 49.6488 16.1878C48.621 14.1113 46.2318 12.8754 42.1691 12.8754C38.6356 12.8754 36.2641 13.9465 34.954 15.562C34.0887 16.7286 33.6445 18.1509 33.6932 19.5992C33.6372 21.0803 34.07 22.539 34.9253 23.7532C36.2197 25.4207 38.525 26.2407 41.2953 26.2407C43.1371 26.3683 44.9664 25.8558 46.4697 24.7909L46.5862 26.0425H50.1513V18.38H41.4928V21.1647ZM60.2701 12.8097C54.5319 12.8097 51.5128 15.512 51.5128 19.4796C51.5128 23.9621 54.68 26.2357 60.2701 26.2357C66.4238 26.2357 69.0115 23.5992 69.0115 19.4796C69.0115 15.2991 66.0921 12.8107 60.2701 12.8107V12.8097ZM60.2543 16.1711C60.6347 16.17 61.0148 16.1916 61.3926 16.2359L56.3861 21.2128C56.1556 20.6842 56.0435 20.1123 56.0573 19.5365C56.0533 17.5071 57.086 16.1721 60.2543 16.1721V16.1711ZM60.2701 22.9273C59.8836 22.929 59.4975 22.9066 59.1139 22.8606L64.1659 17.8406C64.4035 18.3732 64.5173 18.9522 64.4986 19.5345C64.5006 21.507 63.5567 22.9283 60.2701 22.9283V22.9273Z" fill="#0D0E14"/>
</svg>
