<svg width="151" height="40" viewBox="0 0 151 40" fill="none" xmlns="http://www.w3.org/2000/svg">
<g id="Logoipsum / 28">
<path id="Vector" d="M0.861938 28.947L0.861941 10.6392L10.0758 15.7247V23.9123L17.447 28.0316L24.8181 23.9123V15.7247L34.0321 10.6392V28.947L17.447 38.1009L0.861938 28.947Z" fill="#0D0E14"/>
<path id="Vector_2" fill-rule="evenodd" clip-rule="evenodd" d="M5.4689 13.1821L0.861938 10.6393L17.447 1.48535L34.0321 10.6393L29.4251 13.1821V26.6586L17.447 33.5241L5.46889 26.6586L5.4689 13.1821ZM28.926 13.4575L24.8181 15.7248V15.6739L17.447 11.5546L10.0758 15.6739V15.7248L5.96798 13.4575V26.377L17.447 32.9564L28.926 26.377V13.4575Z" fill="#A1AEBF"/>
<path id="Vector_3" d="M42.8627 27.5002V12.1216H45.7816V24.8638H52.858V27.5002H42.8627Z" fill="#0D0E14"/>
<path id="Vector_4" d="M59.1601 27.8079C58.0692 27.8079 57.0889 27.5882 56.2191 27.1487C55.3493 26.7094 54.6638 26.0723 54.1626 25.2375C53.6612 24.4026 53.4106 23.3993 53.4106 22.2277V21.8761C53.4106 20.7044 53.6612 19.7011 54.1626 18.8663C54.6638 18.0315 55.3493 17.3944 56.2191 16.955C57.0889 16.5155 58.0692 16.2959 59.1601 16.2959C60.2511 16.2959 61.2314 16.5155 62.1013 16.955C62.9711 17.3944 63.6566 18.0315 64.1578 18.8663C64.659 19.7011 64.9097 20.7044 64.9097 21.8761V22.2277C64.9097 23.3993 64.659 24.4026 64.1578 25.2375C63.6566 26.0723 62.9711 26.7094 62.1013 27.1487C61.2314 27.5882 60.2511 27.8079 59.1601 27.8079ZM59.1601 25.3473C60.0152 25.3473 60.7229 25.0764 61.283 24.5344C61.8433 23.9779 62.1233 23.1869 62.1233 22.1617V21.9421C62.1233 20.9168 61.8433 20.1332 61.283 19.5913C60.7376 19.0348 60.0299 18.7565 59.1601 18.7565C58.3051 18.7565 57.5974 19.0348 57.0373 19.5913C56.477 20.1332 56.197 20.9168 56.197 21.9421V22.1617C56.197 23.1869 56.477 23.9779 57.0373 24.5344C57.5974 25.0764 58.3051 25.3473 59.1601 25.3473Z" fill="#0D0E14"/>
<path id="Vector_5" d="M65.9557 22.0958V21.7443C65.9557 20.6019 66.1841 19.6279 66.6412 18.8224C67.0982 18.0022 67.7027 17.3797 68.4545 16.955C69.2211 16.5155 70.054 16.2959 70.9532 16.2959C71.9558 16.2959 72.715 16.4717 73.2309 16.8232C73.747 17.1747 74.1229 17.5409 74.3587 17.9217H74.7568V16.6034H77.4989V29.4336C77.4989 30.1805 77.2777 30.7737 76.8354 31.2132C76.3932 31.6672 75.8035 31.8942 75.0664 31.8942H67.7247V29.4776H74.0934C74.5061 29.4776 74.7126 29.2578 74.7126 28.8185V25.9844H74.3145C74.1671 26.2187 73.9607 26.4604 73.6954 26.7094C73.43 26.9437 73.0762 27.1414 72.6339 27.3026C72.1917 27.4637 71.6314 27.5443 70.9532 27.5443C70.054 27.5443 69.2211 27.3318 68.4545 26.9071C67.7027 26.4677 67.0982 25.8452 66.6412 25.0397C66.1841 24.2195 65.9557 23.2383 65.9557 22.0958ZM71.7494 25.1276C72.6044 25.1276 73.3194 24.8566 73.8944 24.3147C74.4693 23.7729 74.7568 23.0112 74.7568 22.03V21.8102C74.7568 20.8142 74.4693 20.0527 73.8944 19.5254C73.3341 18.9835 72.6192 18.7125 71.7494 18.7125C70.8943 18.7125 70.1793 18.9835 69.6044 19.5254C69.0294 20.0527 68.742 20.8142 68.742 21.8102V22.03C68.742 23.0112 69.0294 23.7729 69.6044 24.3147C70.1793 24.8566 70.8943 25.1276 71.7494 25.1276Z" fill="#0D0E14"/>
<path id="Vector_6" d="M84.8117 27.8079C83.7207 27.8079 82.7404 27.5882 81.8706 27.1487C81.0008 26.7094 80.3153 26.0723 79.8141 25.2375C79.3129 24.4026 79.0623 23.3993 79.0623 22.2277V21.8761C79.0623 20.7044 79.3129 19.7011 79.8141 18.8663C80.3153 18.0315 81.0008 17.3944 81.8706 16.955C82.7404 16.5155 83.7207 16.2959 84.8117 16.2959C85.9026 16.2959 86.883 16.5155 87.7528 16.955C88.6226 17.3944 89.3081 18.0315 89.8093 18.8663C90.3106 19.7011 90.5612 20.7044 90.5612 21.8761V22.2277C90.5612 23.3993 90.3106 24.4026 89.8093 25.2375C89.3081 26.0723 88.6226 26.7094 87.7528 27.1487C86.883 27.5882 85.9026 27.8079 84.8117 27.8079ZM84.8117 25.3473C85.6667 25.3473 86.3744 25.0764 86.9345 24.5344C87.4948 23.9779 87.7749 23.1869 87.7749 22.1617V21.9421C87.7749 20.9168 87.4948 20.1332 86.9345 19.5913C86.3891 19.0348 85.6815 18.7565 84.8117 18.7565C83.9566 18.7565 83.249 19.0348 82.6888 19.5913C82.1286 20.1332 81.8485 20.9168 81.8485 21.9421V22.1617C81.8485 23.1869 82.1286 23.9779 82.6888 24.5344C83.249 25.0764 83.9566 25.3473 84.8117 25.3473Z" fill="#0D0E14"/>
<path id="Vector_7" d="M92.1379 27.5002V16.6033H94.9242V27.5002H92.1379ZM93.531 15.3291C93.0298 15.3291 92.6022 15.168 92.2484 14.8458C91.9094 14.5235 91.7399 14.0988 91.7399 13.5716C91.7399 13.0443 91.9094 12.6195 92.2484 12.2973C92.6022 11.9751 93.0298 11.814 93.531 11.814C94.047 11.814 94.4745 11.9751 94.8136 12.2973C95.1527 12.6195 95.3222 13.0443 95.3222 13.5716C95.3222 14.0988 95.1527 14.5235 94.8136 14.8458C94.4745 15.168 94.047 15.3291 93.531 15.3291Z" fill="#0D0E14"/>
<path id="Vector_8" d="M97.0167 31.8942V16.6034H99.7589V17.9217H100.157C100.407 17.4969 100.798 17.1234 101.329 16.8012C101.86 16.4643 102.619 16.2959 103.607 16.2959C104.491 16.2959 105.31 16.5155 106.061 16.955C106.813 17.3797 107.417 18.0095 107.874 18.8444C108.331 19.6792 108.56 20.6898 108.56 21.8761V22.2277C108.56 23.414 108.331 24.4246 107.874 25.2594C107.417 26.0943 106.813 26.7314 106.061 27.1708C105.31 27.5955 104.491 27.8079 103.607 27.8079C102.943 27.8079 102.383 27.7273 101.926 27.5662C101.483 27.4197 101.122 27.2293 100.843 26.995C100.577 26.746 100.363 26.497 100.201 26.2481H99.8031V31.8942H97.0167ZM102.766 25.3912C103.636 25.3912 104.351 25.1202 104.911 24.5783C105.486 24.0218 105.773 23.2162 105.773 22.1617V21.9421C105.773 20.8875 105.486 20.0892 104.911 19.5473C104.337 18.9908 103.621 18.7125 102.766 18.7125C101.911 18.7125 101.196 18.9908 100.621 19.5473C100.046 20.0892 99.7589 20.8875 99.7589 21.9421V22.1617C99.7589 23.2162 100.046 24.0218 100.621 24.5783C101.196 25.1202 101.911 25.3912 102.766 25.3912Z" fill="#0D0E14"/>
<path id="Vector_9" d="M114.678 27.8079C113.248 27.8079 112.076 27.5003 111.162 26.8852C110.249 26.27 109.696 25.3912 109.504 24.2488L112.069 23.5898C112.172 24.1023 112.342 24.5052 112.577 24.7981C112.829 25.091 113.131 25.3033 113.485 25.4352C113.853 25.5523 114.251 25.611 114.678 25.611C115.327 25.611 115.806 25.501 116.116 25.2814C116.425 25.047 116.58 24.7614 116.58 24.4246C116.58 24.0877 116.433 23.8314 116.138 23.6556C115.844 23.4652 115.372 23.3115 114.723 23.1943L114.104 23.0844C113.337 22.9379 112.636 22.7402 112.003 22.4913C111.369 22.2277 110.86 21.8688 110.477 21.4148C110.094 20.9607 109.902 20.3748 109.902 19.6572C109.902 18.5734 110.3 17.7459 111.096 17.1747C111.892 16.5888 112.939 16.2959 114.236 16.2959C115.46 16.2959 116.477 16.5669 117.287 17.1088C118.099 17.6507 118.629 18.3611 118.88 19.2398L116.293 20.0307C116.175 19.4742 115.932 19.0786 115.563 18.8444C115.209 18.61 114.767 18.4928 114.236 18.4928C113.705 18.4928 113.3 18.588 113.02 18.7784C112.74 18.9542 112.6 19.2032 112.6 19.5254C112.6 19.8769 112.747 20.1405 113.042 20.3163C113.337 20.4774 113.735 20.6019 114.236 20.6898L114.855 20.7996C115.681 20.9461 116.425 21.1438 117.089 21.3928C117.767 21.6271 118.298 21.9713 118.681 22.4254C119.079 22.8648 119.279 23.4652 119.279 24.2269C119.279 25.3693 118.858 26.2554 118.017 26.8852C117.192 27.5003 116.079 27.8079 114.678 27.8079Z" fill="#0D0E14"/>
<path id="Vector_10" d="M124.904 27.6761C124.049 27.6761 123.297 27.4857 122.649 27.105C122.015 26.7094 121.521 26.1676 121.167 25.4792C120.814 24.7908 120.636 23.9999 120.636 23.1065V16.6035H123.423V22.8868C123.423 23.707 123.622 24.3221 124.02 24.7322C124.432 25.1423 125.015 25.3474 125.767 25.3474C126.621 25.3474 127.285 25.0691 127.757 24.5125C128.229 23.9413 128.464 23.1505 128.464 22.1399V16.6035H131.251V27.5004H128.508V26.0723H128.111C127.934 26.4385 127.602 26.7973 127.116 27.1488C126.629 27.5004 125.891 27.6761 124.904 27.6761Z" fill="#0D0E14"/>
<path id="Vector_11" d="M133.357 27.5003V16.6034H136.098V17.7898H136.496C136.687 17.4236 137.005 17.1088 137.447 16.8451C137.889 16.5669 138.472 16.4277 139.194 16.4277C139.975 16.4277 140.602 16.5815 141.074 16.889C141.546 17.182 141.907 17.5701 142.158 18.0534H142.555C142.806 17.5848 143.16 17.1967 143.617 16.889C144.074 16.5815 144.722 16.4277 145.563 16.4277C146.241 16.4277 146.853 16.5742 147.398 16.8671C147.958 17.1453 148.401 17.5774 148.725 18.1633C149.064 18.7345 149.233 19.4594 149.233 20.3383V27.5003H146.447V20.536C146.447 19.9355 146.293 19.4888 145.983 19.1959C145.673 18.8883 145.238 18.7345 144.678 18.7345C144.045 18.7345 143.55 18.9396 143.196 19.3496C142.858 19.7451 142.688 20.3163 142.688 21.0633V27.5003H139.902V20.536C139.902 19.9355 139.747 19.4888 139.438 19.1959C139.128 18.8883 138.693 18.7345 138.132 18.7345C137.499 18.7345 137.005 18.9396 136.651 19.3496C136.312 19.7451 136.142 20.3163 136.142 21.0633V27.5003H133.357Z" fill="#0D0E14"/>
</g>
</svg>
