<svg width="151" height="40" viewBox="0 0 151 40" fill="none" xmlns="http://www.w3.org/2000/svg">
<path d="M35.9609 14.6333C36.3627 14.6333 36.4966 14.7774 36.4966 15.1655V23.9473H41.0391C41.4297 23.9473 41.5748 24.0915 41.5748 24.4796V25.2558C41.5748 25.6438 41.4297 25.788 41.0391 25.788H35.0569C34.6663 25.788 34.51 25.6438 34.51 25.2558V15.1655C34.51 14.7774 34.6663 14.6333 35.0569 14.6333H35.9609Z" fill="#0D0E14"/>
<path d="M45.5369 18.503C45.5369 15.9416 47.1663 14.4004 50.0012 14.4004C52.836 14.4004 54.4655 15.9416 54.4655 18.503V21.9182C54.4655 24.4795 52.8249 26.0208 50.0012 26.0208C47.1775 26.0208 45.5369 24.4795 45.5369 21.9182V18.503ZM52.5905 18.503C52.5905 17.0615 51.6865 16.2854 50.057 16.2854C48.4275 16.2854 47.5347 17.0726 47.5347 18.503V21.9403C47.5347 23.3929 48.4275 24.158 50.057 24.158C51.6865 24.158 52.5905 23.3596 52.5905 21.9403V18.503Z" fill="#0D0E14"/>
<path d="M67.7582 19.6783C68.1935 19.6783 68.294 19.8224 68.294 20.2105V22.3173C68.3058 22.8134 68.2057 23.3061 68.001 23.7588C67.7962 24.2117 67.4922 24.6132 67.1109 24.9341C66.1641 25.6831 64.9704 26.0546 63.7627 25.9763C60.872 25.9763 59.2983 24.4351 59.2983 21.8737V18.4364C59.2983 15.9083 60.9278 14.356 63.7627 14.356C65.9948 14.356 67.4457 15.2319 68.0596 16.9838C68.094 17.0497 68.1124 17.1226 68.1134 17.1966C68.1144 17.2708 68.098 17.3442 68.0655 17.4109C68.033 17.4776 67.9853 17.5359 67.9261 17.5812C67.867 17.6263 67.798 17.6572 67.7248 17.6713L66.8542 17.9707C66.4748 18.1038 66.3185 18.0261 66.1846 17.6381C65.9996 17.1645 65.6611 16.7655 65.2225 16.5045C64.7839 16.2435 64.2703 16.1351 63.7627 16.1966C62.122 16.1966 61.2292 16.9838 61.2292 18.4142V21.9403C61.2292 23.3928 62.1332 24.1579 63.7627 24.1579C65.3922 24.1579 66.3966 23.415 66.3966 22.3283V21.5078H63.9747C63.5729 21.5078 63.4278 21.3526 63.4278 20.9645V20.2105C63.4278 19.8224 63.5729 19.6783 63.9747 19.6783H67.7582Z" fill="#0D0E14"/>
<path d="M72.9033 18.503C72.9033 15.9416 74.5328 14.4004 77.3677 14.4004C80.2025 14.4004 81.832 15.9416 81.832 18.503V21.9182C81.832 24.4795 80.1913 26.0208 77.3677 26.0208C74.544 26.0208 72.9033 24.4795 72.9033 21.9182V18.503ZM79.9458 18.503C79.9458 17.0615 79.0418 16.2854 77.4235 16.2854C75.8051 16.2854 74.89 17.0726 74.89 18.503V21.9403C74.89 23.3929 75.794 24.158 77.4235 24.158C79.0529 24.158 79.9458 23.3596 79.9458 21.9403V18.503Z" fill="#0D0E14"/>
<path d="M87.0886 14.9549C87.0886 14.7109 87.1667 14.6333 87.4123 14.6333H87.9257C88.1712 14.6333 88.227 14.7109 88.227 14.9549V25.4664C88.227 25.7104 88.227 25.788 87.9257 25.788H87.4123C87.1667 25.788 87.0886 25.7104 87.0886 25.4664V14.9549Z" fill="#0D0E14"/>
<path d="M98.3945 14.6333C99.324 14.6333 100.215 15.0001 100.873 15.6531C101.53 16.3059 101.899 17.1916 101.899 18.115C101.899 19.0384 101.53 19.924 100.873 20.5769C100.215 21.2299 99.324 21.5967 98.3945 21.5967H95.0462V25.4664C95.0462 25.7104 94.9904 25.788 94.7561 25.788H94.2315C93.9971 25.788 93.9078 25.7104 93.9078 25.4664V14.9549C93.9078 14.7109 93.9971 14.6333 94.2315 14.6333H98.3945ZM98.294 20.4989C98.6136 20.4989 98.93 20.4364 99.2252 20.315C99.5203 20.1935 99.7886 20.0154 100.014 19.791C100.24 19.5665 100.42 19.3 100.542 19.0068C100.664 18.7135 100.727 18.3992 100.727 18.0817C100.727 17.7643 100.664 17.4499 100.542 17.1566C100.42 16.8635 100.24 16.5969 100.014 16.3725C99.7886 16.1481 99.5203 15.97 99.2252 15.8485C98.93 15.727 98.6136 15.6645 98.294 15.6645H94.9458V20.4989H98.294Z" fill="#0D0E14"/>
<path d="M110.616 14.4114C111.477 14.3169 112.347 14.5011 113.095 14.9365C113.842 15.372 114.429 16.0356 114.767 16.8286C114.857 17.006 114.767 17.1501 114.589 17.2388L114.098 17.4606C113.897 17.5382 113.819 17.5271 113.696 17.3165C113.443 16.7279 113.008 16.2345 112.455 15.9076C111.901 15.5807 111.257 15.4372 110.616 15.498C108.729 15.498 107.703 16.2409 107.703 17.5715C107.692 17.9781 107.829 18.375 108.09 18.6888C108.35 19.0026 108.716 19.2123 109.12 19.2791C109.72 19.4735 110.343 19.5927 110.973 19.6339C111.735 19.6742 112.488 19.8275 113.205 20.0885C113.755 20.2614 114.228 20.6168 114.545 21.0954C114.862 21.574 115.004 22.1463 114.946 22.7164C114.946 24.7899 113.428 26.0428 110.638 26.0428C109.723 26.1468 108.799 25.9362 108.022 25.4459C107.244 24.9556 106.658 24.2153 106.363 23.3484C106.344 23.3089 106.333 23.2656 106.332 23.2215C106.331 23.1773 106.34 23.1336 106.358 23.0934C106.376 23.0531 106.403 23.0173 106.437 22.9886C106.471 22.9598 106.51 22.9388 106.553 22.9271L107.044 22.7497C107.083 22.7339 107.124 22.7264 107.166 22.7275C107.208 22.7286 107.249 22.7383 107.287 22.7561C107.325 22.7738 107.358 22.7991 107.386 22.8305C107.413 22.8619 107.434 22.8985 107.446 22.9382C107.696 23.5645 108.14 24.0956 108.713 24.4546C109.287 24.8134 109.961 24.9814 110.638 24.934C112.747 24.934 113.785 24.2022 113.785 22.7164C113.805 22.3259 113.685 21.941 113.445 21.6303C113.206 21.3197 112.864 21.1034 112.479 21.0199C111.902 20.8488 111.306 20.7446 110.705 20.7094L109.5 20.5542C109.122 20.4747 108.75 20.3747 108.383 20.2548C108.022 20.1463 107.684 19.9693 107.39 19.7337C107.094 19.4673 106.861 19.1396 106.706 18.7736C106.552 18.4075 106.481 18.0124 106.497 17.6158C106.575 15.6754 108.037 14.4114 110.616 14.4114Z" fill="#0D0E14"/>
<path d="M120.962 21.9958C121.009 22.78 121.356 23.5166 121.932 24.0551C122.507 24.5937 123.269 24.8935 124.059 24.8935C124.849 24.8935 125.61 24.5937 126.186 24.0551C126.762 23.5166 127.108 22.78 127.156 21.9958V14.9549C127.156 14.7109 127.234 14.6333 127.48 14.6333H127.993C128.239 14.6333 128.317 14.7109 128.317 14.9549V21.9847C128.317 24.5018 126.821 26.0208 124.064 26.0208C121.308 26.0208 119.812 24.5018 119.812 21.9847V14.9549C119.812 14.7109 119.89 14.6333 120.125 14.6333H120.649C120.884 14.6333 120.962 14.7109 120.962 14.9549V21.9958Z" fill="#0D0E14"/>
<path d="M143.719 14.6332C143.964 14.6332 144.042 14.7109 144.042 14.9548V25.4664C144.042 25.7103 143.964 25.7879 143.719 25.7879H143.25C143.016 25.7879 142.937 25.7103 142.937 25.4664V19.0685C142.937 18.1377 143.001 17.2078 143.127 16.2854H143.06C142.712 17.1288 142.305 17.9476 141.844 18.7359L139.444 22.9383C139.415 23.0112 139.364 23.0735 139.298 23.1171C139.232 23.1606 139.155 23.1833 139.076 23.1822H138.763C138.683 23.1826 138.605 23.1597 138.537 23.1165C138.47 23.0731 138.416 23.0112 138.384 22.9383L135.951 18.6915C135.519 17.9146 135.146 17.1066 134.835 16.2743H134.768C134.882 17.2051 134.942 18.1419 134.946 19.0796V25.4664C134.946 25.7103 134.868 25.7879 134.623 25.7879H134.187C133.942 25.7879 133.864 25.7103 133.864 25.4664V14.9548C133.864 14.7109 133.942 14.6332 134.187 14.6332H134.589C134.681 14.6248 134.773 14.6447 134.852 14.6903C134.933 14.736 134.996 14.8052 135.036 14.8883L138.942 21.7851L142.826 14.9548C142.949 14.7219 143.016 14.6887 143.261 14.6887L143.719 14.6332Z" fill="#0D0E14"/>
<path d="M16.1058 24.1028V32.1195C16.1058 32.4269 15.9829 32.7216 15.7642 32.9388C15.5456 33.1561 15.2489 33.2782 14.9395 33.2782C14.6303 33.2782 14.3336 33.1561 14.1148 32.9388C13.8961 32.7216 13.7732 32.4269 13.7732 32.1195V24.1139C14.098 24.3495 14.4873 24.481 14.8893 24.4909C15.3275 24.5033 15.7568 24.3663 16.1058 24.1028ZM26.039 21.7854C25.743 21.7854 25.459 21.9022 25.2498 22.1101C25.0405 22.318 24.9229 22.6001 24.9229 22.8942V24.2913C24.9229 24.5986 25.0458 24.8934 25.2645 25.1106C25.4831 25.3279 25.7798 25.45 26.0892 25.45C26.3986 25.45 26.6952 25.3279 26.9139 25.1106C27.1326 24.8934 27.2555 24.5986 27.2555 24.2913V22.9496C27.2642 22.7906 27.2383 22.6316 27.1796 22.4835C27.1209 22.3353 27.0308 22.2014 26.9153 22.0909C26.7999 21.9805 26.6618 21.896 26.5107 21.8432C26.3595 21.7906 26.1986 21.7708 26.039 21.7854ZM11.2397 27.1409C10.8381 27.129 10.4493 26.9977 10.1236 26.7639V34.8028C10.1236 35.1117 10.2471 35.4078 10.4669 35.6261C10.6866 35.8445 10.9847 35.9671 11.2955 35.9671C11.6063 35.9671 11.9044 35.8445 12.1242 35.6261C12.3439 35.4078 12.4674 35.1117 12.4674 34.8028V26.8194C12.1029 27.0534 11.6729 27.1661 11.2397 27.1409ZM22.4005 19.3792C22.2493 19.3717 22.0982 19.3949 21.9562 19.4472C21.8144 19.4995 21.6847 19.58 21.575 19.6837C21.4654 19.7875 21.3782 19.9122 21.3186 20.0505C21.2591 20.1888 21.2284 20.3377 21.2286 20.488V26.6641C21.2286 26.9729 21.3521 27.2691 21.5718 27.4874C21.7917 27.7058 22.0897 27.8284 22.4005 27.8284C22.7114 27.8284 23.0095 27.7058 23.2292 27.4874C23.449 27.2691 23.5724 26.9729 23.5724 26.6641V20.5657C23.5813 20.4057 23.5552 20.2457 23.4959 20.0966C23.4365 19.9476 23.3454 19.8131 23.2287 19.7024C23.1119 19.5918 22.9725 19.5075 22.82 19.4556C22.6674 19.4036 22.5052 19.3851 22.3447 19.4014L22.4005 19.3792ZM18.6951 21.7521C18.2747 21.7492 17.8656 21.6176 17.5232 21.3751V29.4362C17.5232 29.745 17.6467 30.0412 17.8664 30.2595C18.0863 30.4778 18.3843 30.6004 18.6951 30.6004C19.006 30.6004 19.304 30.4778 19.5238 30.2595C19.7436 30.0412 19.867 29.745 19.867 29.4362V21.3862C19.513 21.6482 19.0807 21.7848 18.6393 21.7743L18.6951 21.7521ZM8.7062 27.9282V5.40815C8.70326 5.13364 8.59143 4.87139 8.395 4.67831C8.19857 4.48523 7.9334 4.37694 7.65708 4.37695H7.41154C7.13522 4.37694 6.87005 4.48523 6.67362 4.67831C6.47719 4.87139 6.36536 5.13364 6.36243 5.40815V27.9282C6.36243 28.2046 6.47296 28.4697 6.66971 28.6652C6.86645 28.8607 7.1333 28.9705 7.41154 28.9705H7.65708C7.93533 28.9705 8.20218 28.8607 8.39892 28.6652C8.59567 28.4697 8.7062 28.2046 8.7062 27.9282ZM11.3625 26.2871H11.1169C10.8387 26.2871 10.5718 26.1774 10.3751 25.9819C10.1784 25.7864 10.0678 25.5213 10.0678 25.2449V8.09148C10.0708 7.81699 10.1826 7.55471 10.379 7.36164C10.5754 7.16856 10.8406 7.06028 11.1169 7.06029H11.3625C11.6388 7.06028 11.904 7.16856 12.1004 7.36164C12.2968 7.55471 12.4087 7.81699 12.4116 8.09148V25.267C12.4116 25.5435 12.3011 25.8086 12.1043 26.0041C11.9076 26.1995 11.6407 26.3093 11.3625 26.3093V26.2871ZM15.0567 23.6482H14.8C14.5248 23.6482 14.2607 23.5395 14.0661 23.3461C13.8714 23.1527 13.7621 22.8905 13.7621 22.617V10.7526C13.7606 10.6163 13.7864 10.481 13.8378 10.3546C13.8893 10.2282 13.9655 10.1132 14.0621 10.0163C14.1586 9.91937 14.2736 9.84242 14.4002 9.7899C14.5269 9.73739 14.6627 9.71034 14.8 9.71036H15.0567C15.333 9.71328 15.597 9.82437 15.7913 10.0195C15.9857 10.2147 16.0947 10.4781 16.0947 10.7526V22.617C16.0947 22.8905 15.9853 23.1527 15.7906 23.3461C15.596 23.5395 15.332 23.6482 15.0567 23.6482ZM18.7509 20.9316H18.5166C18.2402 20.9316 17.975 20.8233 17.7786 20.6302C17.5822 20.4371 17.4703 20.1749 17.4674 19.9004V13.5136C17.4583 13.3712 17.4786 13.2285 17.5273 13.0942C17.5758 12.9601 17.6517 12.8371 17.75 12.7332C17.8484 12.6292 17.9671 12.5465 18.099 12.4899C18.2308 12.4335 18.3729 12.4044 18.5166 12.4048H18.7621C19.0403 12.4048 19.3072 12.5145 19.504 12.71C19.7007 12.9055 19.8112 13.1706 19.8112 13.4471V19.8782C19.8127 20.016 19.7867 20.1527 19.7345 20.2805C19.6825 20.4082 19.6055 20.5244 19.5079 20.6224C19.4103 20.7203 19.2942 20.7981 19.1661 20.8512C19.0381 20.9043 18.9008 20.9316 18.7621 20.9316H18.7509ZM22.4563 18.5476H22.2108C21.9326 18.5476 21.6657 18.4378 21.4689 18.2424C21.2722 18.0469 21.1617 17.7818 21.1617 17.5053V15.8532C21.1646 15.5787 21.2764 15.3164 21.4728 15.1234C21.6693 14.9302 21.9345 14.822 22.2108 14.822H22.4563C22.7327 14.822 22.9979 14.9302 23.1943 15.1234C23.3907 15.3164 23.5026 15.5787 23.5055 15.8532V17.5053C23.5055 17.7799 23.3965 18.0433 23.2021 18.2385C23.0078 18.4336 22.7438 18.5447 22.4675 18.5476H22.4563Z" fill="#0D0E14"/>
</svg>
