<svg width="151" height="40" viewBox="0 0 151 40" fill="none" xmlns="http://www.w3.org/2000/svg">
<path d="M51.1023 28.8052C50.4261 28.8421 49.7573 28.6489 49.2037 28.2566C48.9725 28.0843 48.7864 27.8579 48.6616 27.5971C48.5367 27.3362 48.477 27.0487 48.4875 26.7595V16.1652C48.482 16.1204 48.4867 16.0748 48.5014 16.032C48.5159 15.9893 48.54 15.9506 48.5719 15.9186C48.6037 15.8866 48.6422 15.8623 48.6847 15.8477C48.7273 15.833 48.7726 15.8283 48.8172 15.8338H50.7272C50.9432 15.8338 51.0455 15.948 51.0455 16.1652V25.9366C51.0455 26.3709 51.2387 26.5881 51.6367 26.5881C51.8054 26.595 51.9741 26.5758 52.1369 26.5309C52.3643 26.5309 52.4893 26.5995 52.5007 26.8052L52.6712 28.2338C52.6794 28.2755 52.6786 28.3183 52.6689 28.3597C52.6593 28.401 52.6409 28.4398 52.6149 28.4733C52.5891 28.5069 52.5564 28.5346 52.5191 28.5543C52.4817 28.5741 52.4405 28.5857 52.3984 28.5881C51.98 28.727 51.5429 28.8003 51.1023 28.8052Z" fill="#0D0E14"/>
<path d="M61.8458 27.5826C60.8862 28.3797 59.6801 28.8157 58.4352 28.8157C57.1903 28.8157 55.9843 28.3797 55.0246 27.5826C54.1811 26.7266 53.7078 25.5703 53.7078 24.3654C53.7078 23.1605 54.1811 22.0043 55.0246 21.1483C55.9861 20.3552 57.1914 19.9219 58.4352 19.9219C59.6789 19.9219 60.8843 20.3552 61.8458 21.1483C62.67 22.0122 63.13 23.1628 63.13 24.3597C63.13 25.5566 62.67 26.7072 61.8458 27.5711V27.5826ZM56.8208 26.074C57.2663 26.4796 57.8456 26.7042 58.4466 26.7042C59.0475 26.7042 59.627 26.4796 60.0723 26.074C60.4754 25.6082 60.6974 25.0115 60.6974 24.394C60.6974 23.7766 60.4754 23.1799 60.0723 22.714C59.627 22.3085 59.0475 22.0838 58.4466 22.0838C57.8456 22.0838 57.2663 22.3085 56.8208 22.714C56.4178 23.1799 56.1958 23.7766 56.1958 24.394C56.1958 25.0115 56.4178 25.6082 56.8208 26.074Z" fill="#0D0E14"/>
<path d="M73.6466 20.211C73.8626 20.211 73.9649 20.3253 73.9649 20.5424V28.7367C73.9848 29.2899 73.8818 29.8404 73.6635 30.3484C73.4452 30.8565 73.1171 31.3093 72.703 31.6739C71.7837 32.4619 70.6016 32.8702 69.3946 32.8167C68.3046 32.8552 67.229 32.556 66.3137 31.9596C65.9228 31.7016 65.5889 31.3655 65.3328 30.9724C65.0766 30.5791 64.9035 30.1372 64.8244 29.6739C64.8244 29.4453 64.8244 29.3424 65.1313 29.3424H67.0413C67.1224 29.3452 67.201 29.3716 67.2675 29.4182C67.3342 29.4648 67.3859 29.5297 67.4165 29.6053C67.5404 29.9524 67.7873 30.2414 68.11 30.4167C68.5032 30.6207 68.9409 30.7229 69.3833 30.7139C69.6502 30.7286 69.9174 30.6896 70.1692 30.5993C70.421 30.5092 70.6524 30.3693 70.8499 30.1882C71.0303 29.9987 71.1706 29.7743 71.2624 29.5288C71.3543 29.2833 71.3957 29.0216 71.3842 28.7596V28.0396C70.7004 28.5452 69.868 28.8067 69.0195 28.7824C68.4256 28.8042 67.8335 28.7051 67.2786 28.491C66.7238 28.2768 66.2178 27.9524 65.7907 27.5367C64.9712 26.6844 64.513 25.5452 64.513 24.3596C64.513 23.1741 64.9712 22.0349 65.7907 21.1824C66.2198 20.7706 66.7265 20.4492 67.281 20.2372C67.8355 20.0252 68.4266 19.9269 69.0195 19.9482C69.8926 19.925 70.7473 20.2034 71.441 20.7367V20.5539C71.4358 20.5101 71.4403 20.4656 71.4543 20.4238C71.4683 20.3821 71.4914 20.3439 71.5219 20.3121C71.5523 20.2804 71.5895 20.2559 71.6305 20.2404C71.6717 20.2248 71.7157 20.2188 71.7594 20.2224L73.6466 20.211ZM69.2355 26.7481C69.5283 26.7573 69.8197 26.7016 70.0888 26.5851C70.3579 26.4686 70.5984 26.2941 70.793 26.0739C71.171 25.5832 71.3761 24.9801 71.3761 24.3596C71.3761 23.739 71.171 23.136 70.793 22.6453C70.5991 22.4282 70.3601 22.2562 70.093 22.1416C69.8259 22.0271 69.5371 21.9728 69.2469 21.9824C68.9506 21.9731 68.6559 22.0285 68.3831 22.145C68.1102 22.2614 67.8658 22.436 67.6666 22.6567C67.2479 23.1261 67.0277 23.7411 67.0527 24.371C67.0322 24.9948 67.2475 25.6032 67.6552 26.0739C67.8549 26.294 68.0994 26.4683 68.3721 26.5846C68.6449 26.701 68.9393 26.7567 69.2355 26.7481Z" fill="#0D0E14"/>
<path d="M83.7761 27.5827C82.8146 28.3757 81.6092 28.8091 80.3655 28.8091C79.1217 28.8091 77.9164 28.3757 76.9549 27.5827C76.1301 26.7168 75.6696 25.5644 75.6696 24.3655C75.6696 23.1668 76.1301 22.0142 76.9549 21.1484C77.9173 20.3574 79.1223 19.9253 80.3655 19.9253C81.6087 19.9253 82.8136 20.3574 83.7761 21.1484C84.6003 22.0123 85.0603 23.1629 85.0603 24.3598C85.0603 25.5567 84.6003 26.7073 83.7761 27.5712V27.5827ZM78.7398 26.0741C78.9577 26.2825 79.2146 26.4454 79.4957 26.5533C79.7767 26.6612 80.0762 26.712 80.3769 26.7027C80.6756 26.7104 80.973 26.659 81.252 26.5511C81.531 26.4432 81.786 26.2812 82.0026 26.0741C82.3991 25.6051 82.6169 25.0096 82.6169 24.3941C82.6169 23.7785 82.3991 23.1831 82.0026 22.7141C81.786 22.5071 81.531 22.3449 81.252 22.2372C80.973 22.1293 80.6756 22.0777 80.3769 22.0855C80.0762 22.0763 79.7767 22.127 79.4957 22.2349C79.2146 22.3428 78.9577 22.5058 78.7398 22.7141C78.3433 23.1831 78.1256 23.7785 78.1256 24.3941C78.1256 25.0096 78.3433 25.6051 78.7398 26.0741Z" fill="#0D0E14"/>
<path d="M89.165 18.2681C88.8645 18.5325 88.4787 18.6782 88.0793 18.6782C87.6799 18.6782 87.2942 18.5325 86.9936 18.2681C86.8574 18.1388 86.7488 17.9829 86.6746 17.81C86.6004 17.6371 86.5621 17.4507 86.5621 17.2623C86.5621 17.074 86.6004 16.8877 86.6746 16.7147C86.7488 16.5418 86.8574 16.3859 86.9936 16.2566C87.2972 15.9988 87.6818 15.8574 88.0793 15.8574C88.4768 15.8574 88.8614 15.9988 89.165 16.2566C89.3013 16.3859 89.4099 16.5418 89.484 16.7147C89.5583 16.8877 89.5965 17.074 89.5965 17.2623C89.5965 17.4507 89.5583 17.6371 89.484 17.81C89.4099 17.9829 89.3013 18.1388 89.165 18.2681ZM89.4038 28.8052C88.728 28.8386 88.0603 28.6457 87.5052 28.2566C87.2775 28.0818 87.0945 27.8546 86.972 27.5941C86.8493 27.3337 86.7904 27.0475 86.8003 26.7595V20.5423C86.7949 20.4975 86.7995 20.4519 86.8142 20.4092C86.8287 20.3665 86.8528 20.3277 86.8847 20.2957C86.9165 20.2637 86.955 20.2395 86.9976 20.2249C87.0401 20.2101 87.0854 20.2054 87.13 20.2109H89.04C89.256 20.2109 89.3583 20.3252 89.3583 20.5423V25.9366C89.3583 26.3709 89.5516 26.5881 89.9381 26.5881C90.1106 26.5943 90.2829 26.575 90.4497 26.5309C90.6771 26.5309 90.8021 26.5995 90.8135 26.8052L90.984 28.2338C90.9922 28.2755 90.9914 28.3183 90.9817 28.3597C90.9721 28.401 90.9537 28.4398 90.9277 28.4733C90.9019 28.5069 90.8692 28.5346 90.8319 28.5543C90.7945 28.5741 90.7533 28.5857 90.7112 28.5881C90.2892 28.7278 89.8482 28.8011 89.4038 28.8052Z" fill="#0D0E14"/>
<path d="M98.0098 19.9369C98.6065 19.9133 99.2016 20.0103 99.7602 20.2223C100.319 20.4344 100.829 20.7571 101.261 21.1712C102.065 22.0387 102.512 23.18 102.512 24.3655C102.512 25.551 102.065 26.6925 101.261 27.5598C100.831 27.9777 100.321 28.3036 99.7625 28.5176C99.2037 28.7318 98.6075 28.8297 98.0098 28.8055C97.1585 28.8246 96.3242 28.5638 95.6337 28.0627V32.1884C95.6337 32.4055 95.5201 32.5084 95.304 32.5084H93.3941C93.3505 32.5166 93.3056 32.514 93.2632 32.5008C93.2209 32.4876 93.1824 32.4643 93.151 32.4327C93.1198 32.4012 93.0965 32.3625 93.0834 32.3199C93.0702 32.2774 93.0677 32.2323 93.0758 32.1884V22.8169C93.0892 22.7253 93.081 22.6318 93.0521 22.5438C93.0231 22.4559 92.974 22.3759 92.9089 22.3104C92.8437 22.2449 92.7643 22.1957 92.6767 22.1665C92.5893 22.1374 92.4962 22.1293 92.405 22.1427H92.0298C91.7797 22.1427 91.6547 22.0512 91.6547 21.8684V20.5198C91.6488 20.4364 91.6715 20.3534 91.7191 20.2848C91.7667 20.2161 91.8362 20.166 91.9162 20.1427C92.3094 19.999 92.7256 19.9293 93.144 19.9369C93.5612 19.8998 93.9799 19.9888 94.3466 20.1924C94.7131 20.396 95.011 20.7051 95.2017 21.0798C95.5679 20.7075 96.0058 20.4141 96.4887 20.2175C96.9715 20.0211 97.4891 19.9255 98.0098 19.9369ZM96.2363 26.0741C96.439 26.2871 96.6825 26.4566 96.9522 26.5724C97.2219 26.6881 97.512 26.7478 97.8052 26.7478C98.0984 26.7478 98.3886 26.6881 98.6582 26.5724C98.9279 26.4566 99.1714 26.2871 99.3741 26.0741C99.8011 25.5953 100.025 24.968 99.9994 24.3255C100.029 23.6825 99.8043 23.0537 99.3741 22.5769C99.1714 22.364 98.9279 22.1945 98.6582 22.0788C98.3886 21.9629 98.0984 21.9032 97.8052 21.9032C97.512 21.9032 97.2219 21.9629 96.9522 22.0788C96.6825 22.1945 96.439 22.364 96.2363 22.5769C95.8227 23.0622 95.6074 23.687 95.6337 24.3255C95.6107 24.9636 95.8256 25.5872 96.2363 26.0741Z" fill="#0D0E14"/>
<path d="M107.878 28.8054C106.857 28.8476 105.846 28.6022 104.956 28.0969C104.6 27.8809 104.296 27.5868 104.067 27.2366C103.839 26.8865 103.692 26.4891 103.638 26.074C103.638 25.8454 103.717 25.7312 103.967 25.7312H105.638C105.718 25.7344 105.795 25.7594 105.861 25.8038C105.927 25.8482 105.98 25.91 106.014 25.9826C106.252 26.5997 106.878 26.9083 107.878 26.9083C108.227 26.9244 108.575 26.8537 108.89 26.7026C108.999 26.6532 109.092 26.575 109.16 26.4764C109.228 26.3778 109.268 26.2624 109.276 26.1426C109.276 25.8454 109.095 25.6397 108.731 25.5026C108.299 25.3582 107.853 25.2624 107.401 25.2169C106.865 25.1558 106.333 25.0604 105.809 24.9312C105.299 24.8153 104.836 24.5485 104.479 24.1654C104.268 23.9051 104.114 23.604 104.024 23.2809C103.934 22.9578 103.911 22.6195 103.957 22.2873C104.003 21.9549 104.116 21.6356 104.29 21.3493C104.464 21.0629 104.695 20.8156 104.968 20.6226C105.787 20.0979 106.749 19.8422 107.719 19.8912C108.658 19.8593 109.588 20.0929 110.402 20.5654C110.73 20.7523 111.012 21.0103 111.229 21.3207C111.445 21.6311 111.59 21.986 111.653 22.3597C111.653 22.5883 111.55 22.7026 111.346 22.7026H109.663C109.592 22.7068 109.522 22.6894 109.461 22.6528C109.4 22.6161 109.352 22.5617 109.322 22.4969C109.209 22.2262 108.998 22.0093 108.731 21.8912C108.429 21.7328 108.093 21.654 107.753 21.6626C107.42 21.6444 107.087 21.7113 106.787 21.8569C106.681 21.898 106.59 21.97 106.525 22.0637C106.46 22.1574 106.424 22.2685 106.423 22.3826C106.43 22.5389 106.487 22.6888 106.585 22.8101C106.684 22.9315 106.818 23.0179 106.969 23.0569C107.405 23.2224 107.859 23.3373 108.321 23.3997C108.853 23.4701 109.381 23.5693 109.902 23.6969C110.411 23.8129 110.875 24.0795 111.232 24.4626C111.423 24.6737 111.571 24.9206 111.666 25.1894C111.762 25.4581 111.804 25.7433 111.789 26.0283C111.799 26.4234 111.707 26.8142 111.521 27.1628C111.336 27.5113 111.064 27.8056 110.732 28.0169C109.882 28.5651 108.887 28.8401 107.878 28.8054Z" fill="#0D0E14"/>
<path d="M123.806 28.2338C123.812 28.2744 123.81 28.3159 123.801 28.3557C123.791 28.3957 123.774 28.4332 123.749 28.4663C123.725 28.4993 123.694 28.5271 123.659 28.548C123.624 28.5689 123.585 28.5825 123.544 28.5881C123.129 28.7243 122.696 28.7976 122.259 28.8052C121.827 28.8503 121.391 28.7824 120.993 28.6082C120.594 28.434 120.247 28.1594 119.986 27.8109C119.183 28.505 118.144 28.8611 117.087 28.8052C116.596 28.828 116.106 28.7472 115.647 28.5681C115.189 28.389 114.773 28.1155 114.426 27.7652C114.082 27.3983 113.815 26.9651 113.641 26.4919C113.467 26.0186 113.39 25.5149 113.415 25.0109V20.5424C113.415 20.3252 113.517 20.2109 113.733 20.2109H115.643C115.859 20.2109 115.961 20.3252 115.961 20.5424V24.6681C115.941 25.1821 116.115 25.6848 116.45 26.0738C116.617 26.2521 116.821 26.3922 117.046 26.4849C117.271 26.5776 117.514 26.6205 117.757 26.6109C118.006 26.6219 118.255 26.5832 118.49 26.4968C118.724 26.4105 118.939 26.2784 119.122 26.1081C119.294 25.9287 119.43 25.7154 119.517 25.4815C119.606 25.2475 119.645 24.9979 119.633 24.7481V20.5424C119.633 20.3252 119.736 20.2109 119.952 20.2109H121.884C122.1 20.2109 122.203 20.3252 122.203 20.5424V25.9252C122.203 26.3709 122.396 26.5881 122.771 26.5881C122.947 26.5949 123.123 26.5757 123.294 26.5309C123.337 26.5188 123.383 26.5167 123.426 26.5247C123.47 26.5325 123.511 26.5504 123.548 26.5768C123.584 26.6032 123.613 26.6375 123.635 26.677C123.656 26.7165 123.667 26.7604 123.669 26.8052L123.806 28.2338Z" fill="#0D0E14"/>
<path d="M141.871 28.2341C141.881 28.2751 141.882 28.3178 141.874 28.3592C141.865 28.4004 141.848 28.4395 141.823 28.4733C141.798 28.5072 141.766 28.5351 141.729 28.5549C141.692 28.5749 141.651 28.5864 141.609 28.5884C141.186 28.7266 140.746 28.7999 140.302 28.8056C139.625 28.8407 138.958 28.6476 138.403 28.257C138.163 28.0897 137.969 27.8656 137.836 27.6044C137.703 27.3433 137.636 27.0531 137.641 26.7599V24.0741C137.665 23.5617 137.495 23.0592 137.164 22.6684C137.005 22.4898 136.807 22.349 136.588 22.2561C136.367 22.1633 136.129 22.1207 135.891 22.1313C135.676 22.1232 135.462 22.1642 135.264 22.2513C135.068 22.3384 134.894 22.4693 134.754 22.6341C134.454 23.0171 134.3 23.4957 134.322 23.9827V28.1999C134.322 28.417 134.219 28.5313 134.003 28.5313H132.082C132.038 28.5369 131.992 28.5321 131.95 28.5175C131.907 28.5027 131.868 28.4785 131.837 28.4465C131.805 28.4146 131.781 28.3757 131.766 28.333C131.751 28.2903 131.747 28.2448 131.752 28.1999V24.0741C131.777 23.5673 131.619 23.0683 131.309 22.6684C131.17 22.5004 130.996 22.3652 130.8 22.2724C130.604 22.1796 130.389 22.1314 130.172 22.1313C129.94 22.1219 129.709 22.1618 129.493 22.2485C129.277 22.3352 129.083 22.4666 128.922 22.6341C128.596 23.0049 128.429 23.4892 128.455 23.9827V28.1999C128.461 28.2448 128.457 28.2903 128.442 28.333C128.427 28.3757 128.403 28.4146 128.371 28.4465C128.339 28.4785 128.301 28.5027 128.259 28.5175C128.216 28.5321 128.17 28.5369 128.126 28.5313H126.273C126.057 28.5313 125.954 28.417 125.954 28.1999V22.817C125.968 22.7253 125.96 22.6319 125.93 22.5439C125.902 22.456 125.853 22.376 125.787 22.3105C125.722 22.245 125.643 22.1957 125.555 22.1666C125.468 22.1375 125.374 22.1293 125.284 22.1427H124.908C124.658 22.1427 124.533 22.0513 124.533 21.8684V20.5199C124.528 20.4364 124.55 20.3535 124.598 20.2849C124.646 20.2162 124.715 20.166 124.795 20.1427C125.188 19.9991 125.604 19.9293 126.023 19.937C126.424 19.9026 126.827 19.9831 127.186 20.1691C127.544 20.3552 127.842 20.6392 128.046 20.9884C128.429 20.6231 128.884 20.341 129.381 20.1601C129.878 19.9792 130.406 19.9033 130.934 19.937C131.447 19.9119 131.957 20.0084 132.425 20.2189C132.894 20.4295 133.305 20.7479 133.628 21.1484C134.005 20.7373 134.467 20.4155 134.982 20.2059C135.497 19.9964 136.052 19.9047 136.607 19.937C137.103 19.9137 137.598 19.994 138.062 20.1731C138.526 20.3521 138.948 20.6258 139.301 20.977C139.647 21.3433 139.914 21.7763 140.088 22.2498C140.262 22.7232 140.339 23.2273 140.313 23.7313V25.937C140.313 26.3713 140.506 26.5884 140.87 26.5884C141.046 26.5967 141.223 26.5775 141.393 26.5313C141.628 26.5313 141.754 26.6227 141.768 26.8056L141.871 28.2341Z" fill="#0D0E14"/>
<path d="M8.56024 18.7252C9.39899 15.3362 11.3415 12.3268 14.0785 10.1761C16.8156 8.02532 20.1897 6.85693 23.6637 6.85693C27.1376 6.85693 30.5118 8.02532 33.2488 10.1761C35.9859 12.3268 37.9283 15.3362 38.7671 18.7252H37.4029C35.1015 18.6911 32.8473 19.3825 30.9568 20.7023C30.8476 20.7817 30.7337 20.8543 30.6157 20.9194H30.4565C30.3385 20.8543 30.2246 20.7817 30.1155 20.7023C28.2082 19.413 25.962 18.7245 23.6637 18.7245C21.3654 18.7245 19.1191 19.413 17.2119 20.7023C17.1027 20.7817 16.9888 20.8543 16.8708 20.9194H16.7117C16.5937 20.8543 16.4797 20.7817 16.3706 20.7023C14.4801 19.3825 12.2259 18.6911 9.92449 18.7252H8.56024ZM34.9472 25.8909C35.6475 25.3426 36.5155 25.0558 37.4029 25.0794H39.2332V21.4109H37.4029C35.8399 21.3919 34.3127 21.8809 33.0486 22.8052C32.3373 23.3324 31.4768 23.6168 30.593 23.6168C29.7091 23.6168 28.8486 23.3324 28.1373 22.8052C26.8411 21.8982 25.2998 21.4119 23.7205 21.4119C22.1413 21.4119 20.5999 21.8982 19.3037 22.8052C18.5924 23.3324 17.7319 23.6168 16.8481 23.6168C15.9643 23.6168 15.1038 23.3324 14.3924 22.8052C13.1128 21.869 11.5636 21.3794 9.98134 21.4109H8.09412V25.0794H9.92449C10.8118 25.0558 11.6798 25.3426 12.3802 25.8909C13.6739 26.7985 15.2136 27.2852 16.7912 27.2852C18.3689 27.2852 19.9086 26.7985 21.2023 25.8909C21.9036 25.3444 22.7709 25.0577 23.658 25.0794C24.5457 25.0538 25.4142 25.3409 26.1136 25.8909C27.4098 26.798 28.9512 27.2841 30.5304 27.2841C32.1097 27.2841 33.651 26.798 34.9472 25.8909ZM34.9472 32.4509C35.6475 31.9026 36.5155 31.6158 37.4029 31.6394H39.2332V27.9709H37.4029C35.8399 27.9519 34.3127 28.4409 33.0486 29.3652C32.3373 29.8924 31.4768 30.1768 30.593 30.1768C29.7091 30.1768 28.8486 29.8924 28.1373 29.3652C26.8411 28.4582 25.2998 27.972 23.7205 27.972C22.1413 27.972 20.5999 28.4582 19.3037 29.3652C18.5924 29.8924 17.7319 30.1768 16.8481 30.1768C15.9643 30.1768 15.1038 29.8924 14.3924 29.3652C13.1128 28.4292 11.5636 27.9394 9.98134 27.9709H8.09412V31.6394H9.92449C10.8118 31.6158 11.6798 31.9026 12.3802 32.4509C13.6739 33.3585 15.2136 33.8452 16.7912 33.8452C18.3689 33.8452 19.9086 33.3585 21.2023 32.4509C21.9036 31.9044 22.7709 31.6177 23.658 31.6394C24.5457 31.6138 25.4142 31.9009 26.1136 32.4509C27.4098 33.358 28.9512 33.8441 30.5304 33.8441C32.1097 33.8441 33.651 33.358 34.9472 32.4509Z" fill="#4B5567"/>
</svg>
