<svg width="151" height="40" viewBox="0 0 151 40" fill="none" xmlns="http://www.w3.org/2000/svg">
<path d="M23.0296 29.4629L3.5208 16.0933C1.54382 14.7385 2.21586 11.9177 4.68111 11.2543L25.4155 5.6634C25.8547 5.50594 26.3254 5.45483 26.7885 5.51431C27.2516 5.57378 27.6937 5.74212 28.0782 6.00537C28.4627 6.26861 28.7784 6.61916 28.9992 7.02791C29.22 7.43667 29.3395 7.89185 29.3477 8.35568L28.1189 27.3151C27.9732 29.5655 25.0066 30.8176 23.0296 29.4629Z" fill="#A1AEBF"/>
<path d="M16.8421 32.7633L5.34886 10.4332C5.08613 9.92237 4.97053 9.34936 5.01477 8.77738C5.05902 8.2054 5.26142 7.65667 5.59963 7.19171C5.93784 6.72675 6.39874 6.36362 6.93149 6.14236C7.46424 5.9211 8.04815 5.85031 8.61882 5.93781L29.9187 9.20375C30.409 9.27896 30.8745 9.46873 31.2767 9.75745C31.6789 10.0462 32.0063 10.4256 32.2322 10.8646C32.4579 11.3036 32.5757 11.7895 32.5756 12.2825C32.5755 12.7754 32.4576 13.2614 32.2317 13.7003L22.4197 32.7644C22.1562 33.2738 21.7564 33.7012 21.2644 33.9995C20.7723 34.2979 20.207 34.4556 19.6306 34.4555C19.0541 34.4554 18.4889 34.2974 17.9969 33.9989C17.5049 33.7003 17.1054 33.2728 16.8421 32.7633Z" fill="#728095"/>
<path d="M29.2956 9.10761L18.6777 7.47949L5.64136 10.9961L10.8448 21.1094L23.0297 29.4628C23.2985 29.6451 23.5942 29.7847 23.9062 29.8766L28.5343 20.8847L29.2956 9.10761Z" fill="#0D0E14"/>
<path d="M83.0775 11.7178C83.0775 11.3257 83.1945 10.9424 83.4137 10.6164C83.633 10.2904 83.9447 10.0363 84.3093 9.88625C84.6739 9.73621 85.0751 9.69695 85.4622 9.77344C85.8493 9.84994 86.2048 10.0388 86.4839 10.316C86.763 10.5933 86.953 10.9465 87.03 11.3311C87.107 11.7156 87.0675 12.1142 86.9165 12.4765C86.7654 12.8387 86.5097 13.1484 86.1816 13.3662C85.8534 13.584 85.4676 13.7003 85.0729 13.7003C84.5453 13.695 84.0409 13.4844 83.6678 13.1137C83.2948 12.7431 83.0828 12.242 83.0775 11.7178ZM83.4102 14.6694H86.7367V25.6827H83.4102V14.6694Z" fill="#0D0E14"/>
<path d="M101.102 20.1762C101.141 20.9042 101.034 21.6325 100.788 22.3194C100.542 23.0062 100.163 23.6381 99.6703 24.1786C99.1779 24.719 98.5828 25.1575 97.9192 25.4687C97.2557 25.7799 96.5368 25.9577 95.8038 25.9918C95.1874 26.0251 94.5711 25.9218 93.9996 25.6894C93.4283 25.4569 92.9161 25.1012 92.5002 24.6479V30.0886H89.1747V14.6696H92.5002V15.7046C92.9162 15.2513 93.4284 14.8958 93.9999 14.6635C94.5712 14.4313 95.1875 14.3282 95.8038 14.3616C96.5368 14.3957 97.2556 14.5733 97.9191 14.8843C98.5827 15.1955 99.1778 15.6338 99.6701 16.1742C100.163 16.7146 100.542 17.3463 100.788 18.0332C101.034 18.72 101.141 19.4483 101.102 20.1762ZM97.7765 20.1762C97.7634 19.6605 97.5976 19.1602 97.2997 18.7377C97.0019 18.3153 96.5852 17.9894 96.1019 17.8011C95.6185 17.6127 95.09 17.5702 94.5825 17.6788C94.075 17.7874 93.6109 18.0423 93.2484 18.4115C92.886 18.7808 92.6412 19.2482 92.5447 19.755C92.4483 20.2618 92.5045 20.7856 92.7062 21.2609C92.908 21.7361 93.2463 22.1417 93.6788 22.4269C94.1115 22.7122 94.6192 22.8642 95.1383 22.8642C95.4949 22.8802 95.8507 22.8209 96.1826 22.6907C96.5145 22.5603 96.8148 22.3616 97.064 22.1078C97.3131 21.8539 97.5054 21.5507 97.6282 21.2177C97.751 20.8848 97.8016 20.5298 97.7765 20.1762Z" fill="#0D0E14"/>
<path d="M111.367 22.377C111.367 24.9105 109.149 25.9898 106.755 25.9898C105.787 26.0768 104.816 25.8733 103.966 25.4058C103.117 24.9385 102.428 24.2285 101.988 23.3677L104.87 21.7385C104.987 22.1364 105.238 22.4823 105.582 22.7182C105.924 22.9542 106.339 23.066 106.755 23.035C107.553 23.035 107.951 22.7919 107.951 22.3522C107.951 21.14 102.497 21.7796 102.497 17.9681C102.497 15.5675 104.536 14.3564 106.847 14.3564C107.714 14.3293 108.572 14.5337 109.332 14.9481C110.093 15.3625 110.727 15.9719 111.17 16.7127L108.333 18.2327C108.209 17.9436 108.002 17.6972 107.737 17.5243C107.473 17.3514 107.164 17.2597 106.847 17.2604C106.271 17.2604 105.916 17.4765 105.916 17.8773C105.913 19.1413 111.367 18.304 111.367 22.377Z" fill="#0D0E14"/>
<path d="M123.521 14.6694V25.6827H120.195V24.6456C119.812 25.1024 119.323 25.4624 118.772 25.6961C118.222 25.9297 117.623 26.0303 117.024 25.9895C114.785 25.9895 112.879 24.4036 112.879 21.4293V14.6694H116.205V20.9475C116.176 21.21 116.207 21.4754 116.293 21.7252C116.378 21.975 116.518 22.2033 116.701 22.3941C116.885 22.5849 117.108 22.7335 117.355 22.8298C117.603 22.9262 117.868 22.9676 118.134 22.9515C119.353 22.9515 120.2 22.2471 120.2 20.6828V14.6694H123.521Z" fill="#0D0E14"/>
<path d="M142.582 18.9196V25.6827H139.256V19.2069C139.256 18.106 138.723 17.4006 137.66 17.4006C136.551 17.4006 135.931 18.1719 135.931 19.4716V25.6827H132.604V19.2069C132.604 18.106 132.073 17.4006 131.008 17.4006C129.9 17.4006 129.279 18.1719 129.279 19.4716V25.6827H125.953V14.6694H129.284V15.6785C129.629 15.2291 130.081 14.8728 130.6 14.642C131.119 14.4112 131.689 14.3133 132.255 14.3572C132.824 14.3295 133.392 14.4488 133.901 14.7035C134.409 14.9582 134.843 15.3394 135.16 15.8103C135.528 15.3177 136.017 14.926 136.579 14.6719C137.141 14.4177 137.76 14.3095 138.375 14.3572C140.92 14.3615 142.582 16.1668 142.582 18.9196Z" fill="#0D0E14"/>
<path d="M145.399 14.6012C146.763 14.6012 147.868 13.5032 147.868 12.1487C147.868 10.7943 146.763 9.69629 145.399 9.69629C144.036 9.69629 142.931 10.7943 142.931 12.1487C142.931 13.5032 144.036 14.6012 145.399 14.6012Z" fill="#0D0E14"/>
<path d="M37.6744 9.60352H41.0009V25.6827H37.6744V9.60352ZM42.8844 20.1761C42.8808 19.0214 43.2221 17.8916 43.8651 16.9299C44.5081 15.968 45.4239 15.2174 46.4966 14.773C47.5694 14.3286 48.7505 14.2105 49.891 14.4335C51.0313 14.6566 52.0793 15.2107 52.9024 16.0259C53.7255 16.8411 54.2866 17.8805 54.5147 19.0127C54.7427 20.1449 54.6276 21.3189 54.1837 22.386C53.7398 23.453 52.9871 24.3653 52.021 25.0071C51.055 25.649 49.9189 25.9917 48.7566 25.9917C47.9848 25.9998 47.219 25.8551 46.504 25.566C45.7891 25.2769 45.1392 24.8491 44.5926 24.3077C44.0458 23.7662 43.6132 23.122 43.3199 22.4126C43.0266 21.7033 42.8786 20.9429 42.8844 20.1761ZM51.31 20.1761C51.2969 19.6779 51.1364 19.1948 50.8483 18.7869C50.5604 18.3791 50.1577 18.0646 49.6908 17.8829C49.2237 17.7013 48.7132 17.6603 48.223 17.7654C47.7328 17.8704 47.2847 18.1169 46.9346 18.4736C46.5846 18.8305 46.3483 19.2818 46.2551 19.7714C46.162 20.261 46.2161 20.7669 46.411 21.2261C46.6058 21.6851 46.9325 22.077 47.3503 22.3526C47.7681 22.6282 48.2585 22.7752 48.7599 22.7754C49.1033 22.7852 49.4451 22.724 49.7635 22.596C50.082 22.4681 50.3703 22.2759 50.6103 22.0316C50.8503 21.7874 51.0368 21.4965 51.1579 21.1771C51.2791 20.8577 51.3324 20.5168 51.3143 20.1761H51.31ZM67.8925 14.6662V25.1296C67.8925 28.8298 64.9879 30.3931 62.0398 30.3931C61.0022 30.4709 59.9629 30.2634 59.036 29.7932C58.1091 29.3231 57.3304 28.6084 56.7853 27.7278L59.6224 26.0976C59.8514 26.5572 60.2163 26.9364 60.6681 27.1845C61.12 27.4326 61.6371 27.5377 62.1508 27.4858C62.4786 27.5302 62.8122 27.5011 63.1272 27.4003C63.4421 27.2995 63.7302 27.1299 63.9703 26.9036C64.2103 26.6775 64.3961 26.4007 64.5141 26.0936C64.6321 25.7865 64.6792 25.457 64.6519 25.1296V24.1162C64.2624 24.5894 63.7666 24.9653 63.2045 25.2139C62.6423 25.4625 62.0293 25.5768 61.4145 25.5477C59.9514 25.5024 58.5633 24.8932 57.5443 23.8489C56.5254 22.8046 55.9556 21.4074 55.9556 19.953C55.9556 18.4985 56.5254 17.1012 57.5443 16.0569C58.5633 15.0127 59.9514 14.4034 61.4145 14.3582C62.0293 14.329 62.6423 14.4433 63.2045 14.6919C63.7666 14.9405 64.2624 15.3165 64.6519 15.7898V14.6662H67.8925ZM64.6562 19.9524C64.6782 19.4205 64.5394 18.8942 64.2579 18.4412C63.9764 17.9882 63.5649 17.6292 63.0763 17.4104C62.5878 17.1916 62.0445 17.123 61.5164 17.2135C60.9884 17.3039 60.4996 17.5491 60.1129 17.9178C59.7262 18.2864 59.4593 18.7614 59.3467 19.2818C59.2339 19.8024 59.2804 20.3444 59.4803 20.8384C59.6801 21.3324 60.0241 21.7557 60.468 22.0539C60.9119 22.352 61.4355 22.5115 61.9713 22.5118C62.3207 22.5361 62.6714 22.4876 63.0008 22.3693C63.3302 22.251 63.631 22.0655 63.8839 21.8247C64.1368 21.584 64.3362 21.2933 64.4692 20.9714C64.6022 20.6495 64.6659 20.3034 64.6562 19.9557V19.9524ZM69.776 20.1685C69.7724 19.0138 70.1136 17.8841 70.7566 16.9223C71.3996 15.9605 72.3155 15.2098 73.3881 14.7655C74.4609 14.3211 75.6421 14.2029 76.7825 14.426C77.9228 14.649 78.9708 15.2031 79.794 16.0184C80.6171 16.8335 81.1782 17.8729 81.4062 19.0052C81.6343 20.1374 81.5191 21.3113 81.0752 22.3784C80.6313 23.4455 79.8787 24.3577 78.9126 24.9996C77.9465 25.6414 76.8104 25.9841 75.6482 25.9841C74.877 25.9922 74.1118 25.8478 73.3974 25.5591C72.6829 25.2705 72.0334 24.8434 71.4868 24.3027C70.9402 23.7621 70.5075 23.1189 70.2138 22.4103C69.9199 21.7018 69.7712 20.9423 69.776 20.1761V20.1685ZM78.2015 20.1685C78.1887 19.6701 78.0282 19.1866 77.7402 18.7783C77.4521 18.3701 77.0492 18.0554 76.5821 17.8735C76.1148 17.6915 75.604 17.6506 75.1135 17.7557C74.6229 17.8607 74.1745 18.1073 73.8243 18.4642C73.474 18.8213 73.2375 19.273 73.1444 19.7628C73.0512 20.2527 73.1056 20.759 73.3006 21.2183C73.4957 21.6777 73.8227 22.0696 74.2408 22.3453C74.659 22.6209 75.1497 22.7679 75.6514 22.7679C75.9939 22.7768 76.3344 22.7156 76.6518 22.5878C76.9692 22.46 77.2566 22.2683 77.4961 22.025C77.7354 21.7817 77.9217 21.4918 78.0431 21.1737C78.1645 20.8555 78.2185 20.5158 78.2015 20.1761V20.1685Z" fill="#0D0E14"/>
</svg>
