<svg width="151" height="40" viewBox="0 0 151 40" fill="none" xmlns="http://www.w3.org/2000/svg">
<path d="M45.1652 12.8265H48.818V27.4999H45.1652V12.8265ZM50.267 21.9596C50.267 18.3306 52.5074 16.1652 55.9654 16.1652C59.4234 16.1652 61.6638 18.3306 61.6638 21.9596C61.6638 25.5886 59.4721 27.766 55.9654 27.766C52.4587 27.766 50.267 25.6491 50.267 21.9596ZM57.9988 21.9596C57.9988 19.9636 57.2073 18.7902 55.9654 18.7902C54.7234 18.7902 53.9442 19.9999 53.9442 21.9596C53.9442 23.9193 54.7113 25.1048 55.9654 25.1048C57.2195 25.1048 57.9988 23.9918 57.9988 21.9717V21.9596ZM63.0397 28.2136H66.5464C66.7133 28.582 66.9954 28.8869 67.3508 29.0831C67.7063 29.2792 68.116 29.3562 68.5189 29.3023C69.907 29.3023 70.6375 28.5523 70.6375 27.4636V25.4314H70.5645C70.2735 26.0542 69.8012 26.5761 69.2087 26.9298C68.6162 27.2834 67.9305 27.4525 67.2404 27.4152C64.5739 27.4152 62.8083 25.3951 62.8083 21.9233C62.8083 18.4515 64.4886 16.262 67.2891 16.262C68.0009 16.2343 68.7042 16.4234 69.3049 16.8038C69.9055 17.1844 70.3748 17.7382 70.6497 18.391V16.3709H74.3025V27.3789C74.3025 30.0281 71.9525 31.6733 68.4824 31.6733C65.2557 31.6733 63.2467 30.2338 63.0397 28.2257V28.2136ZM70.6497 21.9475C70.6497 20.1814 69.8339 19.0685 68.5432 19.0685C67.2526 19.0685 66.4611 20.1693 66.4611 21.9475C66.4611 23.7257 67.2404 24.7298 68.5432 24.7298C69.8461 24.7298 70.6497 23.7499 70.6497 21.9596V21.9475ZM75.6784 21.9475C75.6784 18.3185 77.9188 16.1531 81.3768 16.1531C84.8348 16.1531 87.0874 18.3185 87.0874 21.9475C87.0874 25.5765 84.8957 27.7539 81.3768 27.7539C77.8579 27.7539 75.6784 25.6491 75.6784 21.9596V21.9475ZM83.4102 21.9475C83.4102 19.9515 82.6188 18.7781 81.3768 18.7781C80.1349 18.7781 79.4165 19.9999 79.4165 21.9717C79.4165 23.9435 80.1836 25.1168 81.4255 25.1168C82.6675 25.1168 83.4102 23.9918 83.4102 21.9717V21.9475ZM88.4755 13.7338C88.4658 13.3674 88.566 13.0064 88.7632 12.6966C88.9604 12.3868 89.2457 12.1422 89.583 11.9937C89.9203 11.8452 90.2943 11.7995 90.6578 11.8625C91.0212 11.9255 91.3576 12.0942 91.6244 12.3474C91.8913 12.6005 92.0764 12.9267 92.1564 13.2845C92.2364 13.6423 92.2077 14.0156 92.0737 14.3573C91.9399 14.6987 91.707 14.9932 91.4045 15.2031C91.1022 15.4129 90.7437 15.5289 90.3749 15.5362C90.1304 15.5529 89.8851 15.5191 89.6543 15.4371C89.4235 15.3551 89.2123 15.2266 89.034 15.0596C88.8556 14.8927 88.7139 14.6908 88.6178 14.4667C88.5216 14.2428 88.4731 14.0015 88.4755 13.758V13.7338ZM88.4755 16.3951H92.1283V27.4999H88.4755V16.3951ZM105.388 21.9475C105.388 25.5765 103.769 27.6451 100.992 27.6451C100.281 27.6904 99.5718 27.5176 98.9621 27.1498C98.3523 26.782 97.871 26.237 97.5831 25.5886H97.5101V31.0564H93.8573V16.3709H97.5101V18.3548H97.5831C97.8576 17.6956 98.3298 17.1365 98.9354 16.7534C99.541 16.3703 100.251 16.1818 100.968 16.2136C103.769 16.262 105.437 18.3427 105.437 21.9717L105.388 21.9475ZM101.735 21.9475C101.735 20.1814 100.919 19.0564 99.6409 19.0564C98.3624 19.0564 97.5466 20.1935 97.5344 21.9475C97.5223 23.7015 98.3624 24.8265 99.6409 24.8265C100.919 24.8265 101.735 23.7257 101.735 21.9717V21.9475ZM111.659 16.141C114.69 16.141 116.529 17.5685 116.614 19.8548H113.29C113.29 19.0685 112.633 18.5725 111.622 18.5725C110.612 18.5725 110.161 18.9596 110.161 19.5281C110.161 20.0967 110.563 20.2781 111.379 20.4475L113.716 20.9193C115.945 21.391 116.894 22.2862 116.894 23.9677C116.894 26.266 114.788 27.7418 111.683 27.7418C108.578 27.7418 106.545 26.266 106.386 24.0039H109.905C110.015 24.8265 110.672 25.3104 111.744 25.3104C112.815 25.3104 113.302 24.9596 113.302 24.3789C113.302 23.7983 112.962 23.6773 112.085 23.4959L109.978 23.0483C107.799 22.6007 106.654 21.4515 106.654 19.758C106.679 17.5806 108.639 16.1652 111.659 16.1652V16.141ZM129.083 27.4757H125.564V25.4072H125.491C125.297 26.1016 124.871 26.7095 124.282 27.1299C123.692 27.5501 122.976 27.7576 122.252 27.7177C121.697 27.749 121.142 27.6616 120.624 27.4614C120.105 27.2612 119.637 26.953 119.249 26.5573C118.861 26.1618 118.563 25.6879 118.375 25.1681C118.188 24.6483 118.115 24.0946 118.161 23.5443V16.3709H121.813V22.7096C121.813 24.0281 122.495 24.7298 123.628 24.7298C123.893 24.7302 124.156 24.6745 124.398 24.566C124.64 24.4575 124.856 24.2987 125.032 24.1006C125.206 23.9023 125.337 23.6692 125.414 23.4169C125.491 23.1644 125.514 22.8985 125.478 22.637V16.3709H129.131L129.083 27.4757ZM130.848 16.3709H134.379V18.512H134.452C134.646 17.8267 135.063 17.2246 135.638 16.8C136.213 16.3754 136.914 16.1521 137.63 16.1652C138.36 16.1073 139.083 16.3239 139.659 16.7723C140.233 17.2206 140.618 17.8675 140.735 18.5846H140.808C141.029 17.8599 141.486 17.2289 142.109 16.7909C142.73 16.3529 143.481 16.1327 144.242 16.1652C144.739 16.1487 145.233 16.2361 145.693 16.4219C146.155 16.6076 146.57 16.8877 146.914 17.2435C147.259 17.5996 147.524 18.0235 147.694 18.4879C147.862 18.9523 147.931 19.447 147.895 19.9394V27.4999H144.242V20.9072C144.242 19.6975 143.694 19.141 142.671 19.141C142.443 19.1391 142.217 19.1858 142.009 19.278C141.8 19.3702 141.614 19.5056 141.463 19.6754C141.312 19.8451 141.199 20.0449 141.132 20.2616C141.065 20.4783 141.047 20.7067 141.076 20.9314V27.4999H137.606V20.8588C137.606 19.7459 137.058 19.141 136.059 19.141C135.829 19.1412 135.6 19.1898 135.391 19.2838C135.18 19.3779 134.992 19.5152 134.839 19.6866C134.686 19.858 134.572 20.0598 134.502 20.2786C134.434 20.4973 134.412 20.728 134.44 20.9556V27.4999H130.787L130.848 16.3709Z" fill="#0D0E14"/>
<path d="M34.9495 13.4922C34.3298 12.0846 33.5098 10.7727 32.5143 9.59702C31.0428 7.80711 29.2064 6.34709 27.126 5.31307C25.0456 4.27906 22.7683 3.69449 20.4441 3.59782C18.12 3.50116 15.8015 3.89459 13.6414 4.75225C11.4813 5.6099 9.52851 6.91232 7.91156 8.57379C6.29461 10.2352 5.05015 12.2181 4.26011 14.3918C3.47007 16.5655 3.15233 18.8808 3.32784 21.1852C3.50336 23.4898 4.16811 25.7312 5.27837 27.762C6.38863 29.7929 7.91922 31.5672 9.7694 32.968C10.9566 33.8848 12.2684 34.6301 13.6657 35.1817C15.6249 35.9794 17.7217 36.3902 19.839 36.3914C24.2095 36.3818 28.3978 34.651 31.486 31.5784C34.5741 28.5058 36.31 24.3423 36.3132 20.0002C36.3164 17.7605 35.8521 15.5445 34.9495 13.4922ZM19.8268 6.92362C21.7282 6.92343 23.6066 7.33629 25.3304 8.1333C24.9101 8.31375 24.4681 8.43978 24.0154 8.50831C22.5258 8.72253 21.1458 9.40961 20.0815 10.467C19.0172 11.5244 18.3256 12.8953 18.11 14.3752C18.0154 15.2052 17.6354 15.9773 17.0342 16.5614C16.4331 17.1454 15.6476 17.5054 14.8103 17.5809C13.3207 17.7951 11.9407 18.4822 10.8764 19.5396C9.81211 20.597 9.12052 21.9679 8.9049 23.4478C8.83189 24.237 8.49297 24.9787 7.94299 25.5527C6.99405 23.5607 6.56777 21.3625 6.7038 19.1628C6.83983 16.9631 7.53375 14.8334 8.721 12.9717C9.90824 11.1101 11.5502 9.57707 13.4942 8.51538C15.4381 7.45368 17.6207 6.8978 19.839 6.89943L19.8268 6.92362ZM9.75722 28.468C9.90333 28.3349 10.0494 28.214 10.1956 28.0688C11.2788 27.0254 11.9741 25.6481 12.1681 24.1615C12.2467 23.3259 12.6222 22.5454 13.2274 21.9599C13.8098 21.3577 14.5935 20.9877 15.4313 20.9196C16.9209 20.7054 18.3008 20.0183 19.3651 18.9609C20.4294 17.9035 21.121 16.5326 21.3366 15.0527C21.3894 14.1787 21.7668 13.3552 22.396 12.7422C22.9927 12.1517 23.7839 11.7951 24.6242 11.7381C25.9926 11.5511 27.2689 10.9467 28.277 10.0083C29.4248 10.9544 30.3972 12.0925 31.1505 13.3712C31.1043 13.4333 31.0512 13.4901 30.9922 13.5406C30.4111 14.1481 29.6283 14.5262 28.7884 14.6051C27.2972 14.8156 25.9152 15.5015 24.8502 16.5594C23.7852 17.6175 23.0949 18.9905 22.883 20.472C22.7972 21.3048 22.4242 22.0825 21.8273 22.6733C21.2303 23.2642 20.4462 23.6318 19.6076 23.714C18.1136 23.9265 16.7286 24.6123 15.6581 25.6692C14.5877 26.7262 13.8889 28.0979 13.6657 29.5809C13.6002 30.1721 13.3958 30.7398 13.0691 31.2381C11.8198 30.5012 10.701 29.5654 9.75722 28.468ZM19.8268 33.1373C18.5913 33.1387 17.3616 32.9676 16.174 32.6293C16.5803 31.8769 16.8444 31.0568 16.9533 30.2099C17.0386 29.379 17.4099 28.6027 18.0043 28.0122C18.5987 27.4216 19.3801 27.0528 20.2164 26.968C21.7083 26.7562 23.091 26.0702 24.1577 25.0125C25.2243 23.955 25.9178 22.5827 26.134 21.1011C26.2194 20.2701 26.5906 19.4939 27.185 18.9033C27.7795 18.3127 28.5608 17.9439 29.3972 17.8591C30.5198 17.7141 31.5898 17.2988 32.5143 16.6494C33.0276 18.5824 33.0884 20.6064 32.692 22.5663C32.2957 24.5263 31.4526 26.37 30.2277 27.9561C29.0028 29.5419 27.4286 30.8282 25.6255 31.7158C23.8226 32.6035 21.839 33.0691 19.8268 33.0769V33.1373Z" fill="#0D0E14"/>
</svg>
