<svg width="151" height="40" viewBox="0 0 151 40" fill="none" xmlns="http://www.w3.org/2000/svg">
<g clip-path="url(#clip0_1682_2148)">
<path d="M59.9012 11.5288H56.7576V25.6212H65.4601V22.8598H59.9012V11.5288Z" fill="#0D0E14"/>
<path d="M65.7605 20.8411C65.7605 23.85 67.7924 25.8496 70.8593 25.8496C73.9071 25.8496 75.939 23.85 75.939 20.8411C75.939 17.8321 73.9071 15.8135 70.8593 15.8135C67.7924 15.8135 65.7605 17.8321 65.7605 20.8411ZM68.7316 20.822C68.7316 19.3938 69.575 18.4416 70.8593 18.4416C72.1244 18.4416 72.9679 19.3938 72.9679 20.822C72.9679 22.2694 72.1244 23.2216 70.8593 23.2216C69.575 23.2216 68.7316 22.2694 68.7316 20.822Z" fill="#0D0E14"/>
<path d="M76.4138 20.6887C76.4138 23.5642 78.2924 25.5067 80.9568 25.5067C82.2411 25.5067 83.3529 25.0496 83.9087 24.307V25.621C83.9087 26.935 83.0845 27.8109 81.6277 27.8109C80.3242 27.8109 79.4233 27.2016 79.3658 26.1161H76.3755C76.6439 28.7251 78.6757 30.4771 81.4552 30.4771C84.733 30.4771 86.8032 28.3633 86.8032 25.0115V16.0991H84.1387L83.9854 17.0703C83.4487 16.2895 82.3177 15.7754 81.0143 15.7754C78.3307 15.7754 76.4138 17.775 76.4138 20.6887ZM79.4041 20.6125C79.4041 19.2413 80.3242 18.3272 81.4935 18.3272C82.8545 18.3272 83.8512 19.2223 83.8512 20.6125C83.8512 22.0027 82.8736 22.9549 81.5126 22.9549C80.3434 22.9549 79.4041 22.0027 79.4041 20.6125Z" fill="#0D0E14"/>
<path d="M87.6633 20.8411C87.6633 23.85 89.6953 25.8496 92.7625 25.8496C95.8103 25.8496 97.842 23.85 97.842 20.8411C97.842 17.8321 95.8103 15.8135 92.7625 15.8135C89.6953 15.8135 87.6633 17.8321 87.6633 20.8411ZM90.6343 20.822C90.6343 19.3938 91.4777 18.4416 92.7625 18.4416C94.0271 18.4416 94.8705 19.3938 94.8705 20.822C94.8705 22.2694 94.0271 23.2216 92.7625 23.2216C91.4777 23.2216 90.6343 22.2694 90.6343 20.822Z" fill="#0D0E14"/>
<path d="M100.387 14.6139C101.307 14.6139 102.054 13.8712 102.054 12.9381C102.054 12.0049 101.307 11.2812 100.387 11.2812C99.448 11.2812 98.7003 12.0049 98.7003 12.9381C98.7003 13.8712 99.448 14.6139 100.387 14.6139ZM98.8916 25.6212H101.863V16.0993H98.8916V25.6212Z" fill="#0D0E14"/>
<path d="M103.593 30.1915H106.507V24.6688C107.062 25.3925 108.327 25.8876 109.65 25.8876C112.506 25.8876 114.231 23.7167 114.155 20.7077C114.077 17.6417 112.295 15.7944 109.631 15.7944C108.27 15.7944 106.986 16.3848 106.449 17.2608L106.295 16.0992H103.593V30.1915ZM106.564 20.86C106.564 19.4318 107.522 18.4796 108.902 18.4796C110.301 18.4796 111.183 19.4508 111.183 20.86C111.183 22.2693 110.301 23.2405 108.902 23.2405C107.522 23.2405 106.564 22.2883 106.564 20.86Z" fill="#0D0E14"/>
<path d="M114.469 22.6121C114.545 24.5355 116.079 25.8685 118.494 25.8685C120.814 25.8685 122.424 24.6497 122.424 22.6883C122.424 21.2791 121.581 20.3459 120.008 19.965L118.303 19.546C117.69 19.3937 117.306 19.2413 117.306 18.7462C117.306 18.251 117.708 17.9273 118.303 17.9273C118.973 17.9273 119.414 18.3653 119.396 19.0128H122.06C121.983 17.0322 120.469 15.7944 118.36 15.7944C116.233 15.7944 114.642 17.0513 114.642 18.9557C114.642 20.2316 115.351 21.2791 117.248 21.7742L118.935 22.2121C119.433 22.3455 119.644 22.574 119.644 22.8977C119.644 23.3738 119.203 23.6786 118.456 23.6786C117.593 23.6786 117.133 23.2786 117.133 22.6121H114.469Z" fill="#0D0E14"/>
<path d="M126.942 25.8685C128.112 25.8685 129.281 25.3353 129.875 24.5545L130.067 25.621H132.846V16.0991H129.894V21.0505C129.894 22.4787 129.473 23.2595 128.112 23.2595C127.057 23.2595 126.367 22.7834 126.367 21.0124V16.0991H123.415V22.0788C123.415 24.3451 124.681 25.8685 126.942 25.8685Z" fill="#0D0E14"/>
<path d="M137.528 25.621V20.4221C137.528 18.8223 138.39 18.3653 139.234 18.3653C140.173 18.3653 140.786 18.9366 140.786 20.1173V25.621H143.7V20.4221C143.7 18.8033 144.543 18.3463 145.387 18.3463C146.326 18.3463 146.958 18.9175 146.958 20.1173V25.621H149.834V19.3937C149.834 17.2227 148.684 15.7754 146.211 15.7754C144.831 15.7754 143.7 16.4419 143.201 17.4702C142.626 16.4419 141.63 15.7754 140.038 15.7754C138.984 15.7754 138.007 16.2514 137.432 17.0132L137.317 16.0991H134.556V25.621H137.528Z" fill="#0D0E14"/>
<path d="M0.591797 19.9998C0.591797 12.2954 6.87837 6.0498 14.6333 6.0498H33.0627C40.8176 6.0498 47.1041 12.2954 47.1041 19.9998V33.9499H14.6333C6.87837 33.9499 0.591797 27.7043 0.591797 19.9998Z" fill="#0D0E14"/>
<path d="M33.0626 11.2812H14.6332C9.78641 11.2812 5.8573 15.1848 5.8573 20C5.8573 24.8153 9.78641 28.7188 14.6332 28.7188H33.0626C37.9094 28.7188 41.8385 24.8153 41.8385 20C41.8385 15.1848 37.9094 11.2812 33.0626 11.2812Z" fill="#4B5567"/>
<path d="M14.6332 24.3594C17.0566 24.3594 19.0211 22.4076 19.0211 20C19.0211 17.5924 17.0566 15.6406 14.6332 15.6406C12.2098 15.6406 10.2452 17.5924 10.2452 20C10.2452 22.4076 12.2098 24.3594 14.6332 24.3594Z" fill="#0D0E14"/>
<path d="M12.8781 19.128C13.3628 19.128 13.7557 18.7377 13.7557 18.2562C13.7557 17.7746 13.3628 17.3843 12.8781 17.3843C12.3934 17.3843 12.0005 17.7746 12.0005 18.2562C12.0005 18.7377 12.3934 19.128 12.8781 19.128Z" fill="white"/>
<path d="M33.9403 24.3594C36.3637 24.3594 38.3283 22.4076 38.3283 20C38.3283 17.5924 36.3637 15.6406 33.9403 15.6406C31.5169 15.6406 29.5524 17.5924 29.5524 20C29.5524 22.4076 31.5169 24.3594 33.9403 24.3594Z" fill="#0D0E14"/>
<path d="M32.1851 19.128C32.6698 19.128 33.0627 18.7377 33.0627 18.2562C33.0627 17.7746 32.6698 17.3843 32.1851 17.3843C31.7004 17.3843 31.3075 17.7746 31.3075 18.2562C31.3075 18.7377 31.7004 19.128 32.1851 19.128Z" fill="white"/>
</g>
<defs>
<clipPath id="clip0_1682_2148">
<rect width="150.068" height="40" fill="white" transform="translate(0.591797)"/>
</clipPath>
</defs>
</svg>
