<svg width="28" height="27" viewBox="0 0 28 27" fill="none" xmlns="http://www.w3.org/2000/svg">
<g clip-path="url(#clip0_1682_2401)">
<path d="M23.7968 8.07539C23.8073 8.31291 23.8073 8.53963 23.8073 8.77714C23.8177 15.9782 18.527 24.2912 8.85187 24.2912C5.99826 24.2912 3.19673 23.4383 0.790955 21.8405C1.20754 21.8945 1.62412 21.9161 2.04071 21.9161C4.40483 21.9161 6.70646 21.0956 8.57067 19.5733C6.32112 19.5301 4.34234 18.0079 3.65497 15.7838C4.44649 15.9458 5.25883 15.9134 6.02951 15.6867C3.58207 15.1901 1.822 12.9553 1.81159 10.3534C1.81159 10.3318 1.81159 10.3102 1.81159 10.2886C2.54061 10.7097 3.36337 10.9472 4.19653 10.9688C1.8949 9.37093 1.1763 6.18606 2.57185 3.69215C5.24841 7.10374 9.18514 9.1658 13.4135 9.39252C12.9865 7.50319 13.5697 5.5167 14.934 4.17798C17.0482 2.11591 20.3808 2.22387 22.3805 4.41549C23.5573 4.17798 24.6925 3.72454 25.7235 3.08757C25.3278 4.35072 24.505 5.41954 23.4115 6.09969C24.453 5.97014 25.4736 5.67864 26.4317 5.2468C25.7235 6.34801 24.8279 7.29807 23.7968 8.07539Z" fill="white"/>
</g>
<defs>
<clipPath id="clip0_1682_2401">
<rect x="0.116211" width="26.9903" height="26.9903" fill="white"/>
</clipPath>
</defs>
</svg>
